<?xml version="1.0" encoding="utf-8"?>
<!-- Generator: Adobe Illustrator 19.2.0, SVG Export Plug-In . SVG Version: 6.00 Build 0)  -->
<svg version="1.1" id="Layer_1" xmlns="http://www.w3.org/2000/svg" xmlns:xlink="http://www.w3.org/1999/xlink" x="0px" y="0px"
	 viewBox="0 0 212 217" style="enable-background:new 0 0 212 217;" xml:space="preserve">
<style type="text/css">
	.st0{fill:url(#SVGID_1_);}
	.st1{fill:url(#SVGID_2_);}
	.st2{fill:url(#SVGID_3_);}
	.st3{fill:url(#SVGID_4_);}
	.st4{opacity:0.6;}
	.st5{fill:#FFFFFF;}
	.st6{opacity:0.35;}
	.st7{fill:#390075;}
	.st8{fill:#EC1C24;}
	.st9{fill:#D25658;}
	.st10{opacity:0.44;}
	.st11{fill:url(#SVGID_5_);}
	.st12{fill:url(#SVGID_6_);}
	.st13{fill:#371A45;}
	.st14{fill:#273240;}
	.st15{fill:url(#SVGID_7_);}
	.st16{opacity:0.3;}
	.st17{opacity:0.2;}
	.st18{fill:url(#SVGID_8_);}
	.st19{fill:url(#SVGID_9_);}
	.st20{fill:url(#SVGID_10_);}
	.st21{fill:url(#SVGID_11_);}
	.st22{fill:url(#SVGID_12_);}
	.st23{fill:url(#SVGID_13_);}
</style>
<g>
	<g>
		<linearGradient id="SVGID_1_" gradientUnits="userSpaceOnUse" x1="46.5329" y1="84.1708" x2="160.082" y2="84.1708">
			<stop  offset="0" style="stop-color:#FFC1A3"/>
			<stop  offset="1" style="stop-color:#FFB1BB"/>
		</linearGradient>
		<path class="st0" d="M153.7,114.1c-2.5,4.4-5.9,8.6-10,12.4c-9.2,8.5-21.1,13.5-33.5,14.8c-24.8,2.6-48.2-9.8-44.5-40.2
			c1.2-9.7,5-18.9,10.7-26.9c1.8-2.6,4-5.2,6.4-7.2c0.8-0.7,2-0.7,2.8,0c0.5,0.4,0.8,1,0.8,1.6c0,0.3-0.1,0.6-0.2,1
			c-14.4,29.3-4.5,51.4,11.5,56.8c16.2,5.4,46-8.6,45.6-32.7c0.2-7.3-5.9-13.8-13.9-14.9c-6.9-0.9-15.3,2.1-22.2,12.1
			c-5.4-7.6-3.8-18.7,0.1-25.7c2.2-4,4.6-7.6,5.9-11c0,0,0,0,0,0c1.4-3.7,1.4-7.1-1.6-10.3c-5-5.3-23.4-7.4-42.1,10.3
			C63.3,60,58.4,66.9,54.7,74.5c-7.8,16.2-5.8,26.1-5.6,27C38.4,65.9,62.4,33.8,93.7,27.7l0.1,0c4.8-0.9,9.8-1.2,14.8-0.8
			c5,0.4,9.8,1.8,14,4.4c20.1,12.3,3.4,33.7,3.4,33.7C156.3,57.5,168.7,88.5,153.7,114.1z"/>
		<linearGradient id="SVGID_2_" gradientUnits="userSpaceOnUse" x1="46.532" y1="64.4258" x2="117.3147" y2="64.4258">
			<stop  offset="0" style="stop-color:#EFC2EB"/>
			<stop  offset="1" style="stop-color:#AFC1EE"/>
		</linearGradient>
		<path class="st1" d="M113.1,54.2c1.4-3.7,1.4-7.1-1.6-10.3c-5-5.3-23.4-7.4-42.1,10.3C63.3,60,58.4,66.9,54.7,74.5
			c-8,16.6-5.7,26.6-5.6,27.1C38.4,65.9,62.3,33.8,93.7,27.7l0.1,0l0.1,0C115.1,24.7,122.9,36.6,113.1,54.2z"/>
		<linearGradient id="SVGID_3_" gradientUnits="userSpaceOnUse" x1="65.304" y1="104.0571" x2="155.3375" y2="104.0571">
			<stop  offset="0" style="stop-color:#AFC1EE"/>
			<stop  offset="1" style="stop-color:#EFC2EB"/>
		</linearGradient>
		<path class="st2" d="M153.8,114.1C153.7,114.1,153.7,114.1,153.8,114.1c-2.6,4.4-5.9,8.6-10.1,12.4c-9.2,8.5-21.1,13.5-33.5,14.8
			c-24.8,2.6-48.2-9.8-44.5-40.2c1.2-9.7,5-18.9,10.7-26.9c1.8-2.6,4-5.2,6.4-7.2c0.8-0.7,2-0.7,2.8,0c0.5,0.4,0.8,1,0.8,1.6
			c0,0.3-0.1,0.6-0.2,1c-14.4,29.3-4.5,51.4,11.5,56.8c16.2,5.4,46-8.6,45.6-32.7c0.2-7.3-5.9-13.8-13.9-14.9
			C143.9,78,160.6,95.4,153.8,114.1z"/>
		<g>
			<g>
				<linearGradient id="SVGID_4_" gradientUnits="userSpaceOnUse" x1="84.3123" y1="63.8671" x2="90.1882" y2="63.8671">
					<stop  offset="0" style="stop-color:#EFC2EB"/>
					<stop  offset="1" style="stop-color:#AFC1EE"/>
				</linearGradient>
				<path class="st3" d="M90.2,65.4L90.2,65.4L90.2,65.4l-0.8,0.7c-0.4,0.3-0.9,0.4-1.3,0.2c-0.6-0.2-1.2-0.6-1.7-0.9c0,0,0,0,0,0
					c-0.1-0.1-0.1-0.1-0.2-0.1c0,0,0,0,0,0c-0.1,0-0.1-0.1-0.2-0.1c-0.2-0.2-0.4-0.3-0.6-0.5c0,0,0,0,0,0c-0.2-0.3-0.5-0.5-0.7-0.8
					c0,0-0.1-0.1-0.1-0.1c-0.1-0.2-0.2-0.4-0.2-0.7c0-0.2,0-0.4,0.1-0.6l0.3-0.6l0.1-0.2l0-0.1l0-0.1l0,0l1.7,1.3c0,0,0,0,0,0
					l0.1,0.1l0.3,0.2c0,0,0,0,0,0l0.5,0.4l1,0.7l1.3,1l0.1,0.1L90.2,65.4z"/>
			</g>
			<g class="st4">
				<g>
					<path class="st5" d="M85.4,61.8l-0.4,1c-0.1,0.2-0.2,0.5-0.1,0.8c0,0.3,0.1,0.5,0.3,0.7c0.1,0.2,0.3,0.3,0.4,0.5
						c-0.3-0.3-0.6-0.6-0.8-0.9c-0.1-0.2-0.2-0.4-0.3-0.7c0-0.2,0-0.5,0.1-0.7l0.5-1L85.4,61.8z"/>
				</g>
			</g>
			<g>
				<g class="st6">
					<path class="st7" d="M88.4,64l-1-0.7v0L87,62.9l-0.3-0.2l-0.1-0.1c0,0,0,0,0,0l-1.7-1.3l0,0.1h0c0,0,0,0,0.1,0.1
						c0,0.1,0.1,0.1,0.1,0.1c0,0,0,0,0,0h0l0.3,0.3l1.1,0.9l0.1,0.1l0.3,0.2l0.5,0.4l0.6,0.5l-0.1,0l0.3,0.3l0.1,0.1l-0.3,0.2
						l-0.1,0L87.6,65c-0.3,0.3-0.7,0.4-1.1,0.3c0,0,0,0,0,0c0,0-0.1,0-0.1,0c0,0,0,0,0.1,0c0.4,0.2,0.8,0.4,1.2,0.6
						c0.4,0.2,1,0.1,1.3-0.2l0.6-0.5l0,0l0.2-0.1L88.4,64z"/>
				</g>
			</g>
			<g>
				<path class="st8" d="M86.3,58.6l-0.7,2.9c-0.2-0.2-0.5-0.3-0.8-0.4c0,0,0,0-0.1,0c0,0-0.1,0-0.1,0c-1.1-0.2-2.5,0.3-3.3,0.5
					c-0.2,0.1-0.3,0.1-0.4,0.1c-0.1,0-0.1,0-0.1-0.1c1.5-3,3.2-3.6,4.4-3.4C85.7,58.3,86,58.4,86.3,58.6
					C86.2,58.5,86.3,58.6,86.3,58.6z"/>
			</g>
			<g class="st4">
				<g>
					<path class="st5" d="M86.2,58.5c-1.3-0.3-3.2,0.2-4.9,3.1c-0.2,0.1-0.3,0.1-0.4,0.1c-0.1,0-0.1,0-0.1-0.1
						C82.8,57.7,85.2,57.9,86.2,58.5z"/>
				</g>
			</g>
			<g>
				<path class="st9" d="M92.4,63.2c0.9,0.8,1.8,3.1-1.5,6.1c0,0-0.1,0-0.1-0.1c0.1-0.6,0.3-3.6-1-4.6L92.4,63.2z"/>
			</g>
			<g>
				<path class="st8" d="M90.9,69.3c0,0-0.1,0-0.1-0.1c0-0.3,0.1-1.3,0-2.2c-0.1-0.9-0.4-1.9-1-2.3c0,0,0,0,0,0l0,0l2.6-1.4
					c0.3,0.2,0.5,0.6,0.7,1C93.5,65.4,93.3,67.1,90.9,69.3z"/>
			</g>
			<g class="st6">
				<path class="st7" d="M90.8,67c-0.1-0.9-0.4-1.9-1-2.3c0,0,0,0,0,0l2.6-1.4c0.3,0.2,0.5,0.6,0.7,1C92.8,65.1,92.1,66.1,90.8,67z"
					/>
			</g>
			<g>
				<path class="st5" d="M101.7,52.6c-0.5,1.6-1.2,3.5-2.5,5.4c-2.1,3.3-4.5,5.1-6.2,6.2c0,0,0,0,0,0c-1.2,0.7-2.2,1.1-2.6,1.2
					c0,0,0,0,0,0h0c-0.1,0-0.2,0.1-0.2,0.1h0c0,0,0,0,0,0c-0.2-0.1-0.4-0.1-0.6-0.2c-0.2-0.1-0.4-0.1-0.6-0.2c0,0,0,0-0.1,0
					c0,0,0,0,0,0c-0.3-0.1-0.5-0.3-0.8-0.4c0,0-0.1-0.1-0.1-0.1c-0.3-0.2-0.6-0.4-0.9-0.6c-0.1-0.1-0.3-0.2-0.4-0.3
					c-0.1-0.1-0.2-0.1-0.3-0.2c-0.1,0-0.1-0.1-0.1-0.1c-0.4-0.4-0.7-0.7-1-1.1c-0.1-0.1-0.2-0.3-0.3-0.4h0c0,0,0,0,0,0
					c0,0,0,0-0.1-0.1c0,0,0,0-0.1-0.1c0,0,0,0,0,0c0,0,0,0,0,0v-0.3c0-0.1,0-0.2,0-0.3c0-0.5,0.1-1.3,0.4-2.3c0-0.1,0-0.2,0.1-0.3
					c0.2-0.7,0.4-1.5,0.8-2.3c0.1-0.1,0.1-0.2,0.2-0.3c0.6-1.2,1.4-2.6,2.5-4c0.3-0.3,0.5-0.7,0.8-1c0,0,0,0,0,0
					c1.2-1.4,2.4-2.4,3.6-3.2c0,0,0.1-0.1,0.1-0.1c0.1-0.1,0.2-0.2,0.3-0.2c0.1-0.1,0.3-0.2,0.4-0.3c0.1-0.1,0.3-0.2,0.4-0.3
					c0.2-0.1,0.3-0.2,0.5-0.3c0.3-0.1,0.6-0.3,0.8-0.4c0.1-0.1,0.3-0.1,0.4-0.2c0.2-0.1,0.4-0.2,0.6-0.2c0.2-0.1,0.4-0.1,0.5-0.2
					c1.6-0.5,2.8-0.6,3.6-0.6c0.1,0,0.2,0,0.2,0c0.1,0,0.2,0,0.3,0c0.1,0,0.2,0,0.3,0c0,0,0,0,0,0s0.1,0.1,0.1,0.3
					C102.2,45.9,102.8,48.7,101.7,52.6z"/>
			</g>
			<g>
				<path class="st8" d="M101.8,52.6C101.8,52.6,101.8,52.6,101.8,52.6c-0.1-0.1-0.2-0.3-0.3-0.4c-0.3-0.4-0.7-0.8-1.1-1.1
					c-1.7-1.6-3.6-3-5.8-4.1c-0.2-0.1-0.3-0.2-0.5-0.3c0.1-0.1,0.3-0.2,0.4-0.3c0.2-0.1,0.3-0.2,0.5-0.3c0.3-0.1,0.6-0.3,0.8-0.4
					c0.1-0.1,0.3-0.1,0.4-0.2c0.2-0.1,0.4-0.2,0.6-0.2c0.2-0.1,0.4-0.1,0.5-0.2c1.7-0.6,3.1-0.7,3.8-0.7c0.3,0,0.4,0,0.6,0
					c0.1,0,0.1,0,0.1,0s0.1,0.1,0.1,0.4C102.2,46,102.9,48.8,101.8,52.6z"/>
			</g>
			<g>
				<g class="st10">
					<g>
						<linearGradient id="SVGID_5_" gradientUnits="userSpaceOnUse" x1="84.7192" y1="54.8619" x2="102.1079" y2="54.8619">
							<stop  offset="0" style="stop-color:#FFC1A3"/>
							<stop  offset="1" style="stop-color:#FFB1BB"/>
						</linearGradient>
						<path class="st11" d="M101.4,52.2c-0.5,1.6-1.3,3.4-2.5,5.3c-2.1,3.2-4.3,5.1-6.1,6.2c0,0,0,0,0,0c-1.1,0.7-2.1,1.1-2.6,1.3
							c0,0,0,0,0,0c-0.1,0-0.2,0.1-0.3,0.1c-0.2,0.1-0.3,0.1-0.3,0.1c0,0,0,0,0,0c-0.2-0.1-0.4-0.1-0.6-0.2c0,0,0,0-0.1,0
							c0,0,0,0,0,0c-0.3-0.1-0.6-0.2-0.8-0.4c-0.1,0-0.1-0.1-0.2-0.1c-0.3-0.2-0.6-0.3-0.9-0.5c-0.1-0.1-0.3-0.2-0.4-0.3
							c-0.1-0.1-0.2-0.1-0.3-0.2c-0.1,0-0.1-0.1-0.1-0.1c-0.1-0.1-0.2-0.1-0.3-0.2c-0.3-0.3-0.6-0.6-0.8-0.9
							c-0.1-0.1-0.2-0.3-0.3-0.5c0,0-0.1-0.1-0.1-0.1l0.1-0.2l0-0.1c0,0,0,0,0,0c0,0,0,0,0,0v-0.2c0,0,0.1,0.1,0.1,0.1c0,0,0,0,0,0
							c0.5,0.5,1.1,0.8,1.8,1.1c0.1,0,0.1,0.1,0.2,0.1c0.1,0.1,0.2,0.1,0.4,0.1c0.2,0.1,0.5,0.1,0.7,0.2c0.4,0.1,0.8,0.1,1.2,0.1
							c1,0,2-0.4,2.9-0.9c1.6-1.1,3.7-2.8,5.6-5.6c-1.2,1-3,1.1-4.3,0.1c-0.9-0.7-1.4-1.7-1.4-2.8v0c0-0.7,0.3-1.5,0.7-2.1
							c0,0,0,0,0.1-0.1c0,0,0-0.1,0.1-0.1c0.2-0.2,0.3-0.4,0.5-0.5c0.2-0.1,0.4-0.3,0.6-0.4c0.1,0,0.1,0,0.1-0.1
							c0.1,0,0.1-0.1,0.2-0.1c0,0,0,0,0.1,0c0,0,0.1,0,0.1,0c0,0,0,0,0.1,0c0,0,0,0,0.1,0c0,0,0.1,0,0.1,0c0.1,0,0.3-0.1,0.5-0.1
							c0.1,0,0.2,0,0.3,0c0.7,0,1.4,0.1,2.1,0.5c0.1,0.1,0.2,0.1,0.2,0.2c1.1,0.9,1.6,2.3,1.3,3.6c0.6-1.1,1.1-2.2,1.5-3.2
							c0.8-2.5,0.9-4.6,0.8-6.1c0-0.1,0-0.3,0-0.4c0,0,0,0,0,0c0.3,0,0.4,0,0.6,0c0,0,0,0,0,0.1c0,0.1,0.1,0.2,0.1,0.3
							C102.1,46.3,102.4,48.9,101.4,52.2z"/>
					</g>
				</g>
				<g class="st6">
					<path class="st7" d="M84.7,60.7L84.7,60.7C84.7,60.7,84.7,60.7,84.7,60.7C84.7,60.7,84.7,60.7,84.7,60.7z"/>
				</g>
				<g class="st6">
					<polygon class="st7" points="84.7,60.7 84.7,60.7 84.7,60.7 					"/>
				</g>
			</g>
			<g class="st4">
				<g>
					<path class="st5" d="M102,44.9h-0.1c-0.2,0-0.4,0-0.6,0c-1.4,0.1-3.9,0.5-6.6,2c-0.2,0.1-0.3,0.2-0.5,0.3
						c-0.2-0.1-0.3-0.2-0.5-0.2c0.1-0.1,0.3-0.2,0.4-0.3c0.1-0.1,0.3-0.2,0.4-0.3c0.2-0.1,0.3-0.2,0.5-0.3c0.3-0.1,0.6-0.3,0.8-0.4
						c0.1-0.1,0.3-0.1,0.4-0.2c0.2-0.1,0.4-0.2,0.6-0.2c0.2-0.1,0.4-0.1,0.5-0.2c1.7-0.6,3.1-0.7,3.8-0.7c0.3,0,0.4,0,0.6,0
						c0.1,0,0.1,0,0.1,0S101.9,44.7,102,44.9z"/>
				</g>
			</g>
			<g>
				
					<ellipse transform="matrix(0.6049 -0.7963 0.7963 0.6049 -4.7125 96.8687)" class="st8" cx="95.3" cy="53.2" rx="3.1" ry="3.1"/>
				<path class="st7" d="M98.4,52.8c0-0.1,0-0.2-0.1-0.3c0-0.1,0-0.2-0.1-0.2c-0.1-0.4-0.3-0.7-0.6-1h0c0,0,0,0,0,0
					c-0.1-0.2-0.3-0.3-0.5-0.5C96.6,50.3,96,50,95.3,50c-0.1,0-0.2,0-0.3,0c-0.1,0-0.1,0-0.2,0c-0.8,0.1-1.6,0.5-2.1,1.2
					c0,0,0,0.1-0.1,0.1c-0.5,0.7-0.7,1.5-0.6,2.3c0,0.3,0.1,0.6,0.2,0.8c0,0,0,0,0,0s0,0,0,0c0.1,0.1,0.1,0.2,0.2,0.3
					c0.1,0.1,0.2,0.3,0.3,0.4c0.1,0.1,0.1,0.2,0.2,0.3c0.1,0.1,0.2,0.2,0.3,0.3c0,0,0,0,0,0c0.6,0.4,1.2,0.6,1.9,0.6
					c0.9,0,1.9-0.4,2.5-1.2c0.4-0.6,0.6-1.3,0.6-1.9C98.4,53,98.4,52.9,98.4,52.8z M93.5,55.6C93.4,55.6,93.4,55.6,93.5,55.6
					c-0.1-0.1-0.3-0.2-0.3-0.3c0,0,0,0,0,0c-0.2-0.2-0.3-0.4-0.4-0.6c0-0.1-0.1-0.1-0.1-0.2c0,0,0,0,0,0c0,0,0-0.1-0.1-0.1l0,0
					c-0.1-0.3-0.2-0.5-0.2-0.8c-0.1-0.8,0.1-1.6,0.6-2.3c0.5-0.6,1.2-1.1,2-1.2c0.5-0.1,1,0,1.5,0.2c0.1,0.1,0.3,0.1,0.4,0.2
					c0,0,0.1,0,0.1,0c0,0,0.1,0,0.1,0.1c0.1,0,0.1,0.1,0.2,0.1c0,0,0,0,0,0c0.1,0.1,0.2,0.2,0.3,0.3c0,0,0,0,0,0
					c0.1,0.1,0.1,0.1,0.2,0.2c0,0,0,0,0,0c0,0,0.1,0.1,0.1,0.1c0,0.1,0.1,0.1,0.1,0.2c0.2,0.3,0.3,0.5,0.4,0.8
					c0,0.1,0.1,0.2,0.1,0.4c0.1,0.8-0.1,1.6-0.6,2.3C96.7,56.4,94.8,56.6,93.5,55.6z"/>
			</g>
			<g class="st4">
				<g>
					<path class="st5" d="M97.7,51.2c-0.1,0-0.1-0.1-0.2-0.1c-1.4-1-3.3-0.8-4.3,0.6c-0.9,1.2-0.8,2.9,0.2,3.9
						c-1.2-1.1-1.4-2.9-0.4-4.2c1-1.4,3-1.6,4.3-0.6C97.4,51,97.6,51.1,97.7,51.2z"/>
				</g>
			</g>
			<g class="st6">
				<path class="st13" d="M97.7,55.1c-1,1.4-3,1.6-4.3,0.6c-0.4-0.3-0.7-0.7-1-1.2c0.1,0.2,0.3,0.3,0.5,0.5c1.4,1,3.3,0.8,4.3-0.6
					c0.7-0.9,0.8-2.1,0.4-3.1C98.5,52.3,98.6,53.9,97.7,55.1z"/>
				<path class="st7" d="M98.4,52.8c0-0.1,0-0.2-0.1-0.3c0-0.1,0-0.2-0.1-0.2c-0.1-0.4-0.3-0.7-0.6-1h0c0,0,0,0,0,0c0,0,0,0,0,0v0
					l0,0c0,0,0,0,0,0c0,0,0,0,0,0c0.1,0.2,0.2,0.4,0.2,0.7c0.2,0.8,0,1.7-0.6,2.4c-0.5,0.6-1.2,1.1-2,1.2c-0.8,0.1-1.6-0.1-2.2-0.6
					c0,0,0,0,0,0c-0.1-0.1-0.1-0.1-0.2-0.2c-0.1-0.1-0.2-0.2-0.3-0.3c0,0,0,0,0,0l0,0c0,0,0,0,0,0c0,0,0,0,0,0c0,0,0,0,0,0
					c0,0,0,0,0,0s0,0,0,0c0.1,0.1,0.1,0.2,0.2,0.3c0.1,0.1,0.2,0.3,0.3,0.4c0.1,0.1,0.1,0.2,0.2,0.3c0.1,0.1,0.2,0.2,0.3,0.3
					c0,0,0,0,0,0c0.6,0.4,1.2,0.6,1.9,0.6c0.9,0,1.9-0.4,2.5-1.2c0.4-0.6,0.6-1.3,0.6-1.9C98.4,53,98.4,52.9,98.4,52.8z M93.5,55.6
					C93.4,55.6,93.4,55.6,93.5,55.6c-0.1-0.1-0.3-0.2-0.3-0.3c0,0,0,0,0,0c-0.2-0.2-0.3-0.4-0.4-0.6c0.1,0.1,0.1,0.1,0.2,0.2l0,0
					c0,0,0,0,0,0c0.1,0.1,0.2,0.2,0.3,0.2c0.6,0.4,1.3,0.5,2,0.4c0.8-0.1,1.6-0.6,2.1-1.2c0.5-0.6,0.7-1.4,0.6-2.1c0,0,0,0,0,0
					c0-0.2-0.1-0.5-0.1-0.7c0.2,0.3,0.3,0.5,0.4,0.8c0,0.1,0.1,0.2,0.1,0.4c0.1,0.8-0.1,1.6-0.6,2.3C96.7,56.4,94.8,56.6,93.5,55.6z
					"/>
			</g>
			<g>
				<g>
					<path class="st14" d="M98.6,52.7c-0.1-0.9-0.6-1.6-1.2-2.2c0,0-0.1,0-0.1-0.1c-0.7-0.5-1.6-0.8-2.5-0.7
						c-0.9,0.1-1.7,0.6-2.2,1.3c-0.5,0.7-0.8,1.5-0.7,2.3v0c0,0,0,0.1,0,0.1c0.1,0.9,0.6,1.7,1.3,2.2c0,0,0,0,0,0
						c1.5,1.1,3.5,0.8,4.7-0.7C98.5,54.5,98.7,53.6,98.6,52.7z M93.1,55L93.1,55c0,0-0.1-0.1-0.1-0.1c-0.1-0.2-0.2-0.4-0.3-0.5
						c0,0,0,0,0,0v0c0,0,0,0,0,0v0c-0.1-0.2-0.2-0.5-0.2-0.7c-0.1-0.8,0.1-1.5,0.6-2.1c0.5-0.6,1.1-1,1.9-1.1c0.5-0.1,1,0,1.5,0.2
						c0.2,0.1,0.4,0.2,0.6,0.3c0,0,0,0,0,0c0.4,0.3,0.6,0.6,0.8,1c0,0.1,0.1,0.1,0.1,0.1c0,0,0,0,0,0v0c0,0,0,0.1,0.1,0.1
						c0,0,0,0,0,0c0.1,0.2,0.1,0.4,0.1,0.6c0.1,0.8-0.1,1.5-0.6,2.1c-0.9,1.2-2.7,1.5-3.9,0.6c0,0,0,0,0,0c-0.1-0.1-0.2-0.2-0.3-0.3
						C93.2,55.1,93.1,55.1,93.1,55z"/>
				</g>
			</g>
			<g>
				<g>
					<linearGradient id="SVGID_6_" gradientUnits="userSpaceOnUse" x1="93.2872" y1="53.1318" x2="97.2256" y2="53.1318">
						<stop  offset="0" style="stop-color:#EFC2EB"/>
						<stop  offset="1" style="stop-color:#AFC1EE"/>
					</linearGradient>
					<circle class="st12" cx="95.3" cy="53.1" r="2"/>
				</g>
			</g>
			<g class="st16">
				<g>
					<path class="st5" d="M96.8,54.3c-0.7,0.9-1.9,1-2.8,0.4c-0.2-0.1-0.3-0.3-0.5-0.5c0,0,0,0,0.1,0c0.9,0.7,2.1,0.5,2.8-0.4
						c0.5-0.7,0.5-1.6,0.1-2.3C97.3,52.3,97.5,53.5,96.8,54.3z"/>
				</g>
			</g>
			<g class="st6">
				<path class="st7" d="M97,52.2C97,52.2,97,52.1,97,52.2c-0.9-0.7-2.2-0.6-2.8,0.3c-0.5,0.7-0.5,1.5-0.1,2.2
					c-0.8-0.7-0.9-1.9-0.3-2.7c0.7-0.9,1.9-1,2.8-0.4C96.7,51.8,96.9,52,97,52.2z"/>
			</g>
			<g>
				<g>
					<path class="st14" d="M96.6,51.4c-0.5-0.4-1-0.5-1.6-0.4c-0.6,0.1-1.1,0.4-1.5,0.8c-0.7,1-0.6,2.4,0.4,3.1c0,0,0,0,0,0
						c0.4,0.3,0.8,0.4,1.3,0.4c0.7,0,1.3-0.3,1.8-0.9C97.7,53.5,97.6,52.1,96.6,51.4z M94.3,54.6C94.3,54.5,94.2,54.5,94.3,54.6
						C94.2,54.5,94.2,54.5,94.3,54.6C94.2,54.5,94.2,54.5,94.3,54.6c-0.2-0.1-0.3-0.3-0.4-0.4l0,0v0c-0.4-0.6-0.4-1.4,0.1-2
						c0.3-0.4,0.7-0.6,1.1-0.7c0.4-0.1,0.9,0.1,1.3,0.3c0,0,0,0,0,0c0,0,0.1,0,0.1,0.1l0,0c0.2,0.1,0.3,0.3,0.4,0.5c0,0,0,0,0,0
						c0.3,0.6,0.3,1.3-0.1,1.9C96.1,54.9,95,55.1,94.3,54.6z"/>
				</g>
			</g>
			<g class="st17">
				<path class="st5" d="M98.7,46.3c-0.3-0.4-1.3-0.2-1.8,0.1c-0.5,0.3-0.7,0.6-0.6,0.8c0.2,0.3,0.6,0.2,1.1,0
					C97.8,47,99,46.8,98.7,46.3z"/>
			</g>
			<g class="st17">
				<path class="st5" d="M100.2,46.1c-0.2-0.3-0.9-0.4-1.1-0.3c-0.3,0.1-0.4,0.3-0.2,0.5c0.2,0.3,0.5,0.3,0.7,0.2
					C99.8,46.4,100.5,46.5,100.2,46.1z"/>
			</g>
			<g>
				<path class="st8" d="M88.7,63.8c-0.9,1.2-2.8,1.7-2.8,1.7s0,0,0,0c0-0.2,0-2,0.9-3.1c0.8-1.1,2.3-1.4,2.6-1.4c0,0,0,0,0,0
					S89.6,62.6,88.7,63.8z"/>
			</g>
			<g class="st4">
				<g>
					<path class="st5" d="M89.5,61c0,0,0,0.1,0,0.3c-0.5,0.1-1.7,0.4-2.4,1.4c-0.7,0.9-0.8,2.2-0.9,2.8c-0.2,0.1-0.3,0.1-0.3,0.1
						s0,0,0,0c0-0.2,0-2,0.9-3.1C87.7,61.3,89.2,61,89.5,61C89.5,61,89.5,61,89.5,61z"/>
				</g>
			</g>
			<g class="st6">
				<path class="st7" d="M88.7,63.8c-0.9,1.2-2.8,1.7-2.8,1.7s0,0,0,0l3.4-4.5c0,0,0,0,0,0S89.6,62.6,88.7,63.8z"/>
			</g>
		</g>
	</g>
	<g>
		<path class="st14" d="M39.9,170.9c0,5.9-4.2,8.9-11.5,8.9H14.2v-33.1h12.9c7.5,0,11.6,2.9,11.6,9c0,3.3-1.3,5.7-3.8,7.2
			C38,164.2,39.9,166.9,39.9,170.9z M20.8,152.4v8.2h6.6c1.2,0,2.3-0.2,3.4-0.8c1.1-0.6,1.8-1.8,1.8-3.3c0-2.4-1.5-4-4.9-4H20.8z
			 M28.3,174c3.5,0,5-1.7,5-4.2c0-3.4-2.9-4.1-5.1-4.1h-7.4v8.3H28.3z"/>
		<path class="st14" d="M45,179.8v-33.1h6.6v33.1H45z"/>
		<path class="st14" d="M59.8,176.7c-2.4-2.4-3.6-5.5-3.6-9.3s1.2-6.9,3.6-9.3c2.4-2.4,5.5-3.6,9.3-3.6c3.8,0,6.9,1.2,9.3,3.6
			c2.4,2.4,3.6,5.5,3.6,9.3c0,3.8-1.2,6.9-3.6,9.3c-2.4,2.4-5.5,3.6-9.3,3.6C65.3,180.3,62.2,179.1,59.8,176.7z M73.7,172.8
			c1.2-1.3,1.8-3.1,1.8-5.4c0-2.3-0.6-4.1-1.8-5.4c-1.2-1.3-2.8-1.9-4.7-1.9s-3.4,0.6-4.6,1.9c-1.2,1.3-1.9,3.1-1.9,5.4
			c0,2.3,0.6,4.1,1.9,5.4c1.2,1.3,2.8,1.9,4.7,1.9C71,174.7,72.5,174,73.7,172.8z"/>
		<path class="st14" d="M103.4,155.1h6.6v24.6h-6.4v-2.6c-2.1,2.1-4.7,3.1-7.9,3.1c-6.3,0-9.8-4.2-9.8-11.8v-13.4h6.6v13.4
			c0,3.6,1.8,5.7,5,5.7c1.7,0,3.1-0.6,4.2-1.7c1.1-1.1,1.6-2.9,1.6-5.1V155.1z"/>
		<path class="st14" d="M139.1,157.9c2.2,2.2,3.5,5.6,3.5,9.5c0,3.9-1.3,7.2-3.5,9.4c-2.2,2.2-5.3,3.5-8.7,3.5c-3.2,0-5.8-1-7.8-3
			v11.2h-6.4V155h6.3v2.5c2.2-2.1,4.9-3.1,8.1-3.1C133.8,154.4,136.9,155.7,139.1,157.9z M134.3,172.7c1.3-1.3,1.9-3,1.9-5.3
			s-0.6-4.1-1.9-5.3c-1.3-1.3-2.9-1.9-4.8-1.9c-1.9,0-3.5,0.6-4.8,1.9c-1.3,1.3-1.9,3.1-1.9,5.4c0,2.3,0.6,4.1,1.9,5.4
			c1.3,1.3,2.8,1.9,4.8,1.9S133,174,134.3,172.7z"/>
		<path class="st14" d="M170,157.9c2.2,2.2,3.5,5.6,3.5,9.5c0,3.9-1.3,7.2-3.5,9.4c-2.2,2.2-5.3,3.5-8.7,3.5c-3.2,0-5.8-1-7.8-3
			v11.2h-6.4V155h6.3v2.5c2.2-2.1,4.9-3.1,8.1-3.1C164.8,154.4,167.8,155.7,170,157.9z M165.3,172.7c1.3-1.3,1.9-3,1.9-5.3
			s-0.6-4.1-1.9-5.3c-1.3-1.3-2.9-1.9-4.8-1.9c-1.9,0-3.5,0.6-4.8,1.9c-1.3,1.3-1.9,3.1-1.9,5.4c0,2.3,0.6,4.1,1.9,5.4
			c1.3,1.3,2.8,1.9,4.8,1.9S164,174,165.3,172.7z"/>
		<path class="st14" d="M193.9,155.1h7.2l-13.4,34.1h-6.4l3.9-9.7l-10.4-24.4h7.3l6.1,16.2L193.9,155.1z"/>
	</g>
</g>
</svg>
