<svg width="120" height="120" xmlns="http://www.w3.org/2000/svg" xml:space="preserve" version="1.1">
 <defs>
  <linearGradient y2="0.49991" x2="1.00012" y1="0.49991" x1="0.00016" id="SVGID_1_">
   <stop stop-color="#FFC1A3" offset="0"/>
   <stop stop-color="#FFB1BB" offset="1"/>
  </linearGradient>
  <linearGradient y2="0.5001" x2="1.00038" y1="0.5001" x1="0.00034" id="SVGID_2_">
   <stop stop-color="#EFC2EB" offset="0"/>
   <stop stop-color="#AFC1EE" offset="1"/>
  </linearGradient>
  <linearGradient y2="0.50002" x2="0.9997" y1="0.50002" x1="-0.00009" id="SVGID_3_">
   <stop stop-color="#AFC1EE" offset="0"/>
   <stop stop-color="#EFC2EB" offset="1"/>
  </linearGradient>
  <linearGradient y2="0.48268" x2="0.99797" y1="0.48268" x1="-0.01512" id="SVGID_4_">
   <stop stop-color="#EFC2EB" offset="0"/>
   <stop stop-color="#AFC1EE" offset="1"/>
  </linearGradient>
  <linearGradient y2="0.49323" x2="0.99474" y1="0.49323" x1="0.0011" id="SVGID_5_">
   <stop stop-color="#FFC1A3" offset="0"/>
   <stop stop-color="#FFB1BB" offset="1"/>
  </linearGradient>
  <linearGradient y2="0.50795" x2="0.9814" y1="0.50795" x1="-0.0032" id="SVGID_6_">
   <stop stop-color="#EFC2EB" offset="0"/>
   <stop stop-color="#AFC1EE" offset="1"/>
  </linearGradient>
 </defs>
 <g>
  <title>Layer 1</title>
  <g id="svg_1">
   <g id="svg_2">
    <path id="svg_3" fill="url(#SVGID_1_)" d="m109.7,89.1c-2.5,4.4 -5.9,8.6 -10,12.4c-9.2,8.5 -21.1,13.5 -33.5,14.8c-24.8,2.6 -48.2,-9.8 -44.5,-40.2c1.2,-9.7 5,-18.9 10.7,-26.9c1.8,-2.6 4,-5.2 6.4,-7.2c0.8,-0.7 2,-0.7 2.8,0c0.5,0.4 0.8,1 0.8,1.6c0,0.3 -0.1,0.6 -0.2,1c-14.4,29.3 -4.5,51.4 11.5,56.8c16.2,5.4 46,-8.6 45.6,-32.7c0.2,-7.3 -5.9,-13.8 -13.9,-14.9c-6.9,-0.9 -15.3,2.1 -22.2,12.1c-5.4,-7.6 -3.8,-18.7 0.1,-25.7c2.2,-4 4.6,-7.6 5.9,-11c0,0 0,0 0,0c1.4,-3.7 1.4,-7.1 -1.6,-10.3c-5,-5.3 -23.4,-7.4 -42.1,10.3c-6.2,5.8 -11.1,12.7 -14.8,20.3c-7.8,16.2 -5.8,26.1 -5.6,27c-10.7,-35.6 13.3,-67.7 44.6,-73.8l0.1,0c4.8,-0.9 9.8,-1.2 14.8,-0.8c5,0.4 9.8,1.8 14,4.4c20.1,12.3 3.4,33.7 3.4,33.7c30.3,-7.5 42.7,23.5 27.7,49.1z" class="st0"/>
    <path id="svg_4" fill="url(#SVGID_2_)" d="m69.1,29.2c1.4,-3.7 1.4,-7.1 -1.6,-10.3c-5,-5.3 -23.4,-7.4 -42.1,10.3c-6.1,5.8 -11,12.7 -14.7,20.3c-8,16.6 -5.7,26.6 -5.6,27.1c-10.7,-35.7 13.2,-67.8 44.6,-73.9l0.1,0l0.1,0c21.2,-3 29,8.9 19.2,26.5z" class="st1"/>
    <path id="svg_5" fill="url(#SVGID_3_)" d="m109.8,89.1c-0.1,0 -0.1,0 0,0c-2.6,4.4 -5.9,8.6 -10.1,12.4c-9.2,8.5 -21.1,13.5 -33.5,14.8c-24.8,2.6 -48.2,-9.8 -44.5,-40.2c1.2,-9.7 5,-18.9 10.7,-26.9c1.8,-2.6 4,-5.2 6.4,-7.2c0.8,-0.7 2,-0.7 2.8,0c0.5,0.4 0.8,1 0.8,1.6c0,0.3 -0.1,0.6 -0.2,1c-14.4,29.3 -4.5,51.4 11.5,56.8c16.2,5.4 46,-8.6 45.6,-32.7c0.2,-7.3 -5.9,-13.8 -13.9,-14.9c14.5,-0.8 31.2,16.6 24.4,35.3z" class="st2"/>
    <g id="svg_6">
     <g id="svg_7">
      <path id="svg_8" fill="url(#SVGID_4_)" d="m46.2,40.4l0,0l0,0l-0.8,0.7c-0.4,0.3 -0.9,0.4 -1.3,0.2c-0.6,-0.2 -1.2,-0.6 -1.7,-0.9c0,0 0,0 0,0c-0.1,-0.1 -0.1,-0.1 -0.2,-0.1c0,0 0,0 0,0c-0.1,0 -0.1,-0.1 -0.2,-0.1c-0.2,-0.2 -0.4,-0.3 -0.6,-0.5c0,0 0,0 0,0c-0.2,-0.3 -0.5,-0.5 -0.7,-0.8c0,0 -0.1,-0.1 -0.1,-0.1c-0.1,-0.2 -0.2,-0.4 -0.2,-0.7c0,-0.2 0,-0.4 0.1,-0.6l0.3,-0.6l0.1,-0.2l0,-0.1l0,-0.1l0,0l1.7,1.3c0,0 0,0 0,0l0.1,0.1l0.3,0.2c0,0 0,0 0,0l0.5,0.4l1,0.7l1.3,1l0.1,0.1l0.3,0.1z" class="st3"/>
     </g>
     <g id="svg_9" opacity="0.6" class="st4">
      <g id="svg_10">
       <path id="svg_11" fill="#FFFFFF" d="m41.4,36.8l-0.4,1c-0.1,0.2 -0.2,0.5 -0.1,0.8c0,0.3 0.1,0.5 0.3,0.7c0.1,0.2 0.3,0.3 0.4,0.5c-0.3,-0.3 -0.6,-0.6 -0.8,-0.9c-0.1,-0.2 -0.2,-0.4 -0.3,-0.7c0,-0.2 0,-0.5 0.1,-0.7l0.5,-1l0.3,0.3z" class="st5"/>
      </g>
     </g>
     <g id="svg_12">
      <g id="svg_13" opacity="0.35" class="st6">
       <path id="svg_14" fill="#390075" d="m44.4,39l-1,-0.7l0,0l-0.4,-0.4l-0.3,-0.2l-0.1,-0.1c0,0 0,0 0,0l-1.7,-1.3l0,0.1l0,0c0,0 0,0 0.1,0.1c0,0.1 0.1,0.1 0.1,0.1c0,0 0,0 0,0l0,0l0.3,0.3l1.1,0.9l0.1,0.1l0.3,0.2l0.5,0.4l0.6,0.5l-0.1,0l0.3,0.3l0.1,0.1l-0.3,0.2l-0.1,0l-0.3,0.4c-0.3,0.3 -0.7,0.4 -1.1,0.3c0,0 0,0 0,0c0,0 -0.1,0 -0.1,0c0,0 0,0 0.1,0c0.4,0.2 0.8,0.4 1.2,0.6c0.4,0.2 1,0.1 1.3,-0.2l0.6,-0.5l0,0l0.2,-0.1l-1.4,-1.1z" class="st7"/>
      </g>
     </g>
     <g id="svg_15">
      <path id="svg_16" fill="#EC1C24" d="m42.3,33.6l-0.7,2.9c-0.2,-0.2 -0.5,-0.3 -0.8,-0.4c0,0 0,0 -0.1,0c0,0 -0.1,0 -0.1,0c-1.1,-0.2 -2.5,0.3 -3.3,0.5c-0.2,0.1 -0.3,0.1 -0.4,0.1c-0.1,0 -0.1,0 -0.1,-0.1c1.5,-3 3.2,-3.6 4.4,-3.4c0.5,0.1 0.8,0.2 1.1,0.4c-0.1,-0.1 0,0 0,0z" class="st8"/>
     </g>
     <g id="svg_17" opacity="0.6" class="st4">
      <g id="svg_18">
       <path id="svg_19" fill="#FFFFFF" d="m42.2,33.5c-1.3,-0.3 -3.2,0.2 -4.9,3.1c-0.2,0.1 -0.3,0.1 -0.4,0.1c-0.1,0 -0.1,0 -0.1,-0.1c2,-3.9 4.4,-3.7 5.4,-3.1z" class="st5"/>
      </g>
     </g>
     <g id="svg_20">
      <path id="svg_21" fill="#D25658" d="m48.4,38.2c0.9,0.8 1.8,3.1 -1.5,6.1c0,0 -0.1,0 -0.1,-0.1c0.1,-0.6 0.3,-3.6 -1,-4.6l2.6,-1.4z" class="st9"/>
     </g>
     <g id="svg_22">
      <path id="svg_23" fill="#EC1C24" d="m46.9,44.3c0,0 -0.1,0 -0.1,-0.1c0,-0.3 0.1,-1.3 0,-2.2c-0.1,-0.9 -0.4,-1.9 -1,-2.3c0,0 0,0 0,0l0,0l2.6,-1.4c0.3,0.2 0.5,0.6 0.7,1c0.4,1.1 0.2,2.8 -2.2,5z" class="st8"/>
     </g>
     <g id="svg_24" opacity="0.35" class="st6">
      <path id="svg_25" fill="#390075" d="m46.8,42c-0.1,-0.9 -0.4,-1.9 -1,-2.3c0,0 0,0 0,0l2.6,-1.4c0.3,0.2 0.5,0.6 0.7,1c-0.3,0.8 -1,1.8 -2.3,2.7z" class="st7"/>
     </g>
     <g id="svg_26">
      <path id="svg_27" fill="#FFFFFF" d="m57.7,27.6c-0.5,1.6 -1.2,3.5 -2.5,5.4c-2.1,3.3 -4.5,5.1 -6.2,6.2c0,0 0,0 0,0c-1.2,0.7 -2.2,1.1 -2.6,1.2c0,0 0,0 0,0l0,0c-0.1,0 -0.2,0.1 -0.2,0.1l0,0c0,0 0,0 0,0c-0.2,-0.1 -0.4,-0.1 -0.6,-0.2c-0.2,-0.1 -0.4,-0.1 -0.6,-0.2c0,0 0,0 -0.1,0c0,0 0,0 0,0c-0.3,-0.1 -0.5,-0.3 -0.8,-0.4c0,0 -0.1,-0.1 -0.1,-0.1c-0.3,-0.2 -0.6,-0.4 -0.9,-0.6c-0.1,-0.1 -0.3,-0.2 -0.4,-0.3c-0.1,-0.1 -0.2,-0.1 -0.3,-0.2c-0.1,0 -0.1,-0.1 -0.1,-0.1c-0.4,-0.4 -0.7,-0.7 -1,-1.1c-0.1,-0.1 -0.2,-0.3 -0.3,-0.4l0,0c0,0 0,0 0,0c0,0 0,0 -0.1,-0.1c0,0 0,0 -0.1,-0.1c0,0 0,0 0,0c0,0 0,0 0,0l0,-0.3c0,-0.1 0,-0.2 0,-0.3c0,-0.5 0.1,-1.3 0.4,-2.3c0,-0.1 0,-0.2 0.1,-0.3c0.2,-0.7 0.4,-1.5 0.8,-2.3c0.1,-0.1 0.1,-0.2 0.2,-0.3c0.6,-1.2 1.4,-2.6 2.5,-4c0.3,-0.3 0.5,-0.7 0.8,-1c0,0 0,0 0,0c1.2,-1.4 2.4,-2.4 3.6,-3.2c0,0 0.1,-0.1 0.1,-0.1c0.1,-0.1 0.2,-0.2 0.3,-0.2c0.1,-0.1 0.3,-0.2 0.4,-0.3c0.1,-0.1 0.3,-0.2 0.4,-0.3c0.2,-0.1 0.3,-0.2 0.5,-0.3c0.3,-0.1 0.6,-0.3 0.8,-0.4c0.1,-0.1 0.3,-0.1 0.4,-0.2c0.2,-0.1 0.4,-0.2 0.6,-0.2c0.2,-0.1 0.4,-0.1 0.5,-0.2c1.6,-0.5 2.8,-0.6 3.6,-0.6c0.1,0 0.2,0 0.2,0c0.1,0 0.2,0 0.3,0c0.1,0 0.2,0 0.3,0c0,0 0,0 0,0s0.1,0.1 0.1,0.3c0.5,0.7 1.1,3.5 0,7.4z" class="st5"/>
     </g>
     <g id="svg_28">
      <path id="svg_29" fill="#EC1C24" d="m57.8,27.6c0,0 0,0 0,0c-0.1,-0.1 -0.2,-0.3 -0.3,-0.4c-0.3,-0.4 -0.7,-0.8 -1.1,-1.1c-1.7,-1.6 -3.6,-3 -5.8,-4.1c-0.2,-0.1 -0.3,-0.2 -0.5,-0.3c0.1,-0.1 0.3,-0.2 0.4,-0.3c0.2,-0.1 0.3,-0.2 0.5,-0.3c0.3,-0.1 0.6,-0.3 0.8,-0.4c0.1,-0.1 0.3,-0.1 0.4,-0.2c0.2,-0.1 0.4,-0.2 0.6,-0.2c0.2,-0.1 0.4,-0.1 0.5,-0.2c1.7,-0.6 3.1,-0.7 3.8,-0.7c0.3,0 0.4,0 0.6,0c0.1,0 0.1,0 0.1,0s0.1,0.1 0.1,0.4c0.3,1.2 1,4 -0.1,7.8z" class="st8"/>
     </g>
     <g id="svg_30">
      <g id="svg_31" opacity="0.44" class="st10">
       <g id="svg_32">
        <path id="svg_33" fill="url(#SVGID_5_)" d="m57.4,27.2c-0.5,1.6 -1.3,3.4 -2.5,5.3c-2.1,3.2 -4.3,5.1 -6.1,6.2c0,0 0,0 0,0c-1.1,0.7 -2.1,1.1 -2.6,1.3c0,0 0,0 0,0c-0.1,0 -0.2,0.1 -0.3,0.1c-0.2,0.1 -0.3,0.1 -0.3,0.1c0,0 0,0 0,0c-0.2,-0.1 -0.4,-0.1 -0.6,-0.2c0,0 0,0 -0.1,0c0,0 0,0 0,0c-0.3,-0.1 -0.6,-0.2 -0.8,-0.4c-0.1,0 -0.1,-0.1 -0.2,-0.1c-0.3,-0.2 -0.6,-0.3 -0.9,-0.5c-0.1,-0.1 -0.3,-0.2 -0.4,-0.3c-0.1,-0.1 -0.2,-0.1 -0.3,-0.2c-0.1,0 -0.1,-0.1 -0.1,-0.1c-0.1,-0.1 -0.2,-0.1 -0.3,-0.2c-0.3,-0.3 -0.6,-0.6 -0.8,-0.9c-0.1,-0.1 -0.2,-0.3 -0.3,-0.5c0,0 -0.1,-0.1 -0.1,-0.1l0.1,-0.2l0,-0.1c0,0 0,0 0,0c0,0 0,0 0,0l0,-0.2c0,0 0.1,0.1 0.1,0.1c0,0 0,0 0,0c0.5,0.5 1.1,0.8 1.8,1.1c0.1,0 0.1,0.1 0.2,0.1c0.1,0.1 0.2,0.1 0.4,0.1c0.2,0.1 0.5,0.1 0.7,0.2c0.4,0.1 0.8,0.1 1.2,0.1c1,0 2,-0.4 2.9,-0.9c1.6,-1.1 3.7,-2.8 5.6,-5.6c-1.2,1 -3,1.1 -4.3,0.1c-0.9,-0.7 -1.4,-1.7 -1.4,-2.8l0,0c0,-0.7 0.3,-1.5 0.7,-2.1c0,0 0,0 0.1,-0.1c0,0 0,-0.1 0.1,-0.1c0.2,-0.2 0.3,-0.4 0.5,-0.5c0.2,-0.1 0.4,-0.3 0.6,-0.4c0.1,0 0.1,0 0.1,-0.1c0.1,0 0.1,-0.1 0.2,-0.1c0,0 0,0 0.1,0c0,0 0.1,0 0.1,0c0,0 0,0 0.1,0c0,0 0,0 0.1,0c0,0 0.1,0 0.1,0c0.1,0 0.3,-0.1 0.5,-0.1c0.1,0 0.2,0 0.3,0c0.7,0 1.4,0.1 2.1,0.5c0.1,0.1 0.2,0.1 0.2,0.2c1.1,0.9 1.6,2.3 1.3,3.6c0.6,-1.1 1.1,-2.2 1.5,-3.2c0.8,-2.5 0.9,-4.6 0.8,-6.1c0,-0.1 0,-0.3 0,-0.4c0,0 0,0 0,0c0.3,0 0.4,0 0.6,0c0,0 0,0 0,0.1c0,0.1 0.1,0.2 0.1,0.3c-0.1,1.1 0.2,3.7 -0.8,7z" class="st11"/>
       </g>
      </g>
      <g id="svg_34" opacity="0.35" class="st6">
       <path id="svg_35" fill="#390075" d="m40.7,35.7l0,0c0,0 0,0 0,0c0,0 0,0 0,0z" class="st7"/>
      </g>
      <g id="svg_36" opacity="0.35" class="st6">
       <polygon id="svg_37" fill="#390075" points="40.69999694824219,35.69999694824219 40.69999694824219,35.69999694824219 40.69999694824219,35.69999694824219 " class="st7"/>
      </g>
     </g>
     <g id="svg_38" opacity="0.6" class="st4">
      <g id="svg_39">
       <path id="svg_40" fill="#FFFFFF" d="m58,19.9l-0.1,0c-0.2,0 -0.4,0 -0.6,0c-1.4,0.1 -3.9,0.5 -6.6,2c-0.2,0.1 -0.3,0.2 -0.5,0.3c-0.2,-0.1 -0.3,-0.2 -0.5,-0.2c0.1,-0.1 0.3,-0.2 0.4,-0.3c0.1,-0.1 0.3,-0.2 0.4,-0.3c0.2,-0.1 0.3,-0.2 0.5,-0.3c0.3,-0.1 0.6,-0.3 0.8,-0.4c0.1,-0.1 0.3,-0.1 0.4,-0.2c0.2,-0.1 0.4,-0.2 0.6,-0.2c0.2,-0.1 0.4,-0.1 0.5,-0.2c1.7,-0.6 3.1,-0.7 3.8,-0.7c0.3,0 0.4,0 0.6,0c0.1,0 0.1,0 0.1,0s0.1,0.3 0.2,0.5z" class="st5"/>
      </g>
     </g>
     <g id="svg_41">
      <ellipse id="svg_42" fill="#EC1C24" ry="3.1" rx="3.1" cy="3.04018" cx="88.59188" class="st8" transform="matrix(0.6049 -0.7963 0.7963 0.6049 -4.7125 96.8687)"/>
      <path id="svg_43" fill="#390075" d="m54.4,27.8c0,-0.1 0,-0.2 -0.1,-0.3c0,-0.1 0,-0.2 -0.1,-0.2c-0.1,-0.4 -0.3,-0.7 -0.6,-1l0,0c0,0 0,0 0,0c-0.1,-0.2 -0.3,-0.3 -0.5,-0.5c-0.5,-0.5 -1.1,-0.8 -1.8,-0.8c-0.1,0 -0.2,0 -0.3,0c-0.1,0 -0.1,0 -0.2,0c-0.8,0.1 -1.6,0.5 -2.1,1.2c0,0 0,0.1 -0.1,0.1c-0.5,0.7 -0.7,1.5 -0.6,2.3c0,0.3 0.1,0.6 0.2,0.8c0,0 0,0 0,0s0,0 0,0c0.1,0.1 0.1,0.2 0.2,0.3c0.1,0.1 0.2,0.3 0.3,0.4c0.1,0.1 0.1,0.2 0.2,0.3c0.1,0.1 0.2,0.2 0.3,0.3c0,0 0,0 0,0c0.6,0.4 1.2,0.6 1.9,0.6c0.9,0 1.9,-0.4 2.5,-1.2c0.4,-0.6 0.6,-1.3 0.6,-1.9c0.2,-0.2 0.2,-0.3 0.2,-0.4zm-4.9,2.8c-0.1,0 -0.1,0 0,0c-0.1,-0.1 -0.3,-0.2 -0.3,-0.3c0,0 0,0 0,0c-0.2,-0.2 -0.3,-0.4 -0.4,-0.6c0,-0.1 -0.1,-0.1 -0.1,-0.2c0,0 0,0 0,0c0,0 0,-0.1 -0.1,-0.1l0,0c-0.1,-0.3 -0.2,-0.5 -0.2,-0.8c-0.1,-0.8 0.1,-1.6 0.6,-2.3c0.5,-0.6 1.2,-1.1 2,-1.2c0.5,-0.1 1,0 1.5,0.2c0.1,0.1 0.3,0.1 0.4,0.2c0,0 0.1,0 0.1,0c0,0 0.1,0 0.1,0.1c0.1,0 0.1,0.1 0.2,0.1c0,0 0,0 0,0c0.1,0.1 0.2,0.2 0.3,0.3c0,0 0,0 0,0c0.1,0.1 0.1,0.1 0.2,0.2c0,0 0,0 0,0c0,0 0.1,0.1 0.1,0.1c0,0.1 0.1,0.1 0.1,0.2c0.2,0.3 0.3,0.5 0.4,0.8c0,0.1 0.1,0.2 0.1,0.4c0.1,0.8 -0.1,1.6 -0.6,2.3c-1.2,1.4 -3.1,1.6 -4.4,0.6z" class="st7"/>
     </g>
     <g id="svg_44" opacity="0.6" class="st4">
      <g id="svg_45">
       <path id="svg_46" fill="#FFFFFF" d="m53.7,26.2c-0.1,0 -0.1,-0.1 -0.2,-0.1c-1.4,-1 -3.3,-0.8 -4.3,0.6c-0.9,1.2 -0.8,2.9 0.2,3.9c-1.2,-1.1 -1.4,-2.9 -0.4,-4.2c1,-1.4 3,-1.6 4.3,-0.6c0.1,0.2 0.3,0.3 0.4,0.4z" class="st5"/>
      </g>
     </g>
     <g id="svg_47" opacity="0.35" class="st6">
      <path id="svg_48" fill="#371A45" d="m53.7,30.1c-1,1.4 -3,1.6 -4.3,0.6c-0.4,-0.3 -0.7,-0.7 -1,-1.2c0.1,0.2 0.3,0.3 0.5,0.5c1.4,1 3.3,0.8 4.3,-0.6c0.7,-0.9 0.8,-2.1 0.4,-3.1c0.9,1 1,2.6 0.1,3.8z" class="st13"/>
      <path id="svg_49" fill="#390075" d="m54.4,27.8c0,-0.1 0,-0.2 -0.1,-0.3c0,-0.1 0,-0.2 -0.1,-0.2c-0.1,-0.4 -0.3,-0.7 -0.6,-1l0,0c0,0 0,0 0,0c0,0 0,0 0,0l0,0l0,0c0,0 0,0 0,0c0,0 0,0 0,0c0.1,0.2 0.2,0.4 0.2,0.7c0.2,0.8 0,1.7 -0.6,2.4c-0.5,0.6 -1.2,1.1 -2,1.2c-0.8,0.1 -1.6,-0.1 -2.2,-0.6c0,0 0,0 0,0c-0.1,-0.1 -0.1,-0.1 -0.2,-0.2c-0.1,-0.1 -0.2,-0.2 -0.3,-0.3c0,0 0,0 0,0l0,0c0,0 0,0 0,0c0,0 0,0 0,0c0,0 0,0 0,0c0,0 0,0 0,0s0,0 0,0c0.1,0.1 0.1,0.2 0.2,0.3c0.1,0.1 0.2,0.3 0.3,0.4c0.1,0.1 0.1,0.2 0.2,0.3c0.1,0.1 0.2,0.2 0.3,0.3c0,0 0,0 0,0c0.6,0.4 1.2,0.6 1.9,0.6c0.9,0 1.9,-0.4 2.5,-1.2c0.4,-0.6 0.6,-1.3 0.6,-1.9c-0.1,-0.3 -0.1,-0.4 -0.1,-0.5zm-4.9,2.8c-0.1,0 -0.1,0 0,0c-0.1,-0.1 -0.3,-0.2 -0.3,-0.3c0,0 0,0 0,0c-0.2,-0.2 -0.3,-0.4 -0.4,-0.6c0.1,0.1 0.1,0.1 0.2,0.2l0,0c0,0 0,0 0,0c0.1,0.1 0.2,0.2 0.3,0.2c0.6,0.4 1.3,0.5 2,0.4c0.8,-0.1 1.6,-0.6 2.1,-1.2c0.5,-0.6 0.7,-1.4 0.6,-2.1c0,0 0,0 0,0c0,-0.2 -0.1,-0.5 -0.1,-0.7c0.2,0.3 0.3,0.5 0.4,0.8c0,0.1 0.1,0.2 0.1,0.4c0.1,0.8 -0.1,1.6 -0.6,2.3c-1.1,1.4 -3,1.6 -4.3,0.6z" class="st7"/>
     </g>
     <g id="svg_50">
      <g id="svg_51">
       <path id="svg_52" fill="#273240" d="m54.6,27.7c-0.1,-0.9 -0.6,-1.6 -1.2,-2.2c0,0 -0.1,0 -0.1,-0.1c-0.7,-0.5 -1.6,-0.8 -2.5,-0.7c-0.9,0.1 -1.7,0.6 -2.2,1.3c-0.5,0.7 -0.8,1.5 -0.7,2.3l0,0c0,0 0,0.1 0,0.1c0.1,0.9 0.6,1.7 1.3,2.2c0,0 0,0 0,0c1.5,1.1 3.5,0.8 4.7,-0.7c0.6,-0.4 0.8,-1.3 0.7,-2.2zm-5.5,2.3l0,0c0,0 -0.1,-0.1 -0.1,-0.1c-0.1,-0.2 -0.2,-0.4 -0.3,-0.5c0,0 0,0 0,0l0,0c0,0 0,0 0,0l0,0c-0.1,-0.2 -0.2,-0.5 -0.2,-0.7c-0.1,-0.8 0.1,-1.5 0.6,-2.1c0.5,-0.6 1.1,-1 1.9,-1.1c0.5,-0.1 1,0 1.5,0.2c0.2,0.1 0.4,0.2 0.6,0.3c0,0 0,0 0,0c0.4,0.3 0.6,0.6 0.8,1c0,0.1 0.1,0.1 0.1,0.1c0,0 0,0 0,0l0,0c0,0 0,0.1 0.1,0.1c0,0 0,0 0,0c0.1,0.2 0.1,0.4 0.1,0.6c0.1,0.8 -0.1,1.5 -0.6,2.1c-0.9,1.2 -2.7,1.5 -3.9,0.6c0,0 0,0 0,0c-0.1,-0.1 -0.2,-0.2 -0.3,-0.3c-0.2,-0.1 -0.3,-0.1 -0.3,-0.2z" class="st14"/>
      </g>
     </g>
     <g id="svg_53">
      <g id="svg_54">
       <circle id="svg_55" fill="url(#SVGID_6_)" r="2" cy="28.1" cx="51.3" class="st12"/>
      </g>
     </g>
     <g id="svg_56" opacity="0.3" class="st16">
      <g id="svg_57">
       <path id="svg_58" fill="#FFFFFF" d="m52.8,29.3c-0.7,0.9 -1.9,1 -2.8,0.4c-0.2,-0.1 -0.3,-0.3 -0.5,-0.5c0,0 0,0 0.1,0c0.9,0.7 2.1,0.5 2.8,-0.4c0.5,-0.7 0.5,-1.6 0.1,-2.3c0.8,0.8 1,2 0.3,2.8z" class="st5"/>
      </g>
     </g>
     <g id="svg_59" opacity="0.35" class="st6">
      <path id="svg_60" fill="#390075" d="m53,27.2c0,0 0,-0.1 0,0c-0.9,-0.7 -2.2,-0.6 -2.8,0.3c-0.5,0.7 -0.5,1.5 -0.1,2.2c-0.8,-0.7 -0.9,-1.9 -0.3,-2.7c0.7,-0.9 1.9,-1 2.8,-0.4c0.1,0.2 0.3,0.4 0.4,0.6z" class="st7"/>
     </g>
     <g id="svg_61">
      <g id="svg_62">
       <path id="svg_63" fill="#273240" d="m52.6,26.4c-0.5,-0.4 -1,-0.5 -1.6,-0.4c-0.6,0.1 -1.1,0.4 -1.5,0.8c-0.7,1 -0.6,2.4 0.4,3.1c0,0 0,0 0,0c0.4,0.3 0.8,0.4 1.3,0.4c0.7,0 1.3,-0.3 1.8,-0.9c0.7,-0.9 0.6,-2.3 -0.4,-3zm-2.3,3.2c0,-0.1 -0.1,-0.1 0,0c-0.1,-0.1 -0.1,-0.1 0,0c-0.1,-0.1 -0.1,-0.1 0,0c-0.2,-0.1 -0.3,-0.3 -0.4,-0.4l0,0l0,0c-0.4,-0.6 -0.4,-1.4 0.1,-2c0.3,-0.4 0.7,-0.6 1.1,-0.7c0.4,-0.1 0.9,0.1 1.3,0.3c0,0 0,0 0,0c0,0 0.1,0 0.1,0.1l0,0c0.2,0.1 0.3,0.3 0.4,0.5c0,0 0,0 0,0c0.3,0.6 0.3,1.3 -0.1,1.9c-0.7,0.6 -1.8,0.8 -2.5,0.3z" class="st14"/>
      </g>
     </g>
     <g id="svg_64" opacity="0.2" class="st17">
      <path id="svg_65" fill="#FFFFFF" d="m54.7,21.3c-0.3,-0.4 -1.3,-0.2 -1.8,0.1c-0.5,0.3 -0.7,0.6 -0.6,0.8c0.2,0.3 0.6,0.2 1.1,0c0.4,-0.2 1.6,-0.4 1.3,-0.9z" class="st5"/>
     </g>
     <g id="svg_66" opacity="0.2" class="st17">
      <path id="svg_67" fill="#FFFFFF" d="m56.2,21.1c-0.2,-0.3 -0.9,-0.4 -1.1,-0.3c-0.3,0.1 -0.4,0.3 -0.2,0.5c0.2,0.3 0.5,0.3 0.7,0.2c0.2,-0.1 0.9,0 0.6,-0.4z" class="st5"/>
     </g>
     <g id="svg_68">
      <path id="svg_69" fill="#EC1C24" d="m44.7,38.8c-0.9,1.2 -2.8,1.7 -2.8,1.7s0,0 0,0c0,-0.2 0,-2 0.9,-3.1c0.8,-1.1 2.3,-1.4 2.6,-1.4c0,0 0,0 0,0s0.2,1.6 -0.7,2.8z" class="st8"/>
     </g>
     <g id="svg_70" opacity="0.6" class="st4">
      <g id="svg_71">
       <path id="svg_72" fill="#FFFFFF" d="m45.5,36c0,0 0,0.1 0,0.3c-0.5,0.1 -1.7,0.4 -2.4,1.4c-0.7,0.9 -0.8,2.2 -0.9,2.8c-0.2,0.1 -0.3,0.1 -0.3,0.1s0,0 0,0c0,-0.2 0,-2 0.9,-3.1c0.9,-1.2 2.4,-1.5 2.7,-1.5c0,0 0,0 0,0z" class="st5"/>
      </g>
     </g>
     <g id="svg_73" opacity="0.35" class="st6">
      <path id="svg_74" fill="#390075" d="m44.7,38.8c-0.9,1.2 -2.8,1.7 -2.8,1.7s0,0 0,0l3.4,-4.5c0,0 0,0 0,0s0.3,1.6 -0.6,2.8z" class="st7"/>
     </g>
    </g>
   </g>
  </g>
 </g>
</svg>