<svg width="212" height="217" xmlns="http://www.w3.org/2000/svg" xmlns:svg="http://www.w3.org/2000/svg">
 <style type="text/css">.st0{fill:url(#SVGID_1_);}
	.st1{fill:url(#SVGID_2_);}
	.st2{fill:url(#SVGID_3_);}
	.st3{fill:url(#SVGID_4_);}
	.st4{opacity:0.6;}
	.st5{fill:#FFFFFF;}
	.st6{opacity:0.35;}
	.st7{fill:#390075;}
	.st8{fill:#EC1C24;}
	.st9{fill:#D25658;}
	.st10{opacity:0.44;}
	.st11{fill:url(#SVGID_5_);}
	.st12{fill:url(#SVGID_6_);}
	.st13{fill:#371A45;}
	.st14{fill:#273240;}
	.st15{fill:url(#SVGID_7_);}
	.st16{opacity:0.3;}
	.st17{opacity:0.2;}
	.st18{fill:url(#SVGID_8_);}
	.st19{fill:url(#SVGID_9_);}
	.st20{fill:url(#SVGID_10_);}
	.st21{fill:url(#SVGID_11_);}
	.st22{fill:url(#SVGID_12_);}
	.st23{fill:url(#SVGID_13_);}
	.st24{font-family:&#x27;Ondo-Medium';}
	.st25{font-size:47.2956px;}</style>
 <g class="layer">
  <title>Layer 1</title>
  <g id="svg_1">
   <g id="svg_2">
    <linearGradient transform="translate(1,0) translate(0,-11) translate(0,-4) translate(6,19) translate(3,16) translate(9,4) translate(-3,-2) translate(0,-1) translate(6,2) translate(2,32) translate(162.06893920898438,173.63607788085938) scale(1.123281478881836,1.1479419469833374) translate(-162.06893920898438,-173.63607788085938) translate(154.96466064453125,153.8719482421875) scale(1.0470362901687622,1.0075808763504028) translate(-154.96466064453125,-153.8719482421875) translate(148.00314331054688,152.71424865722656) scale(0.9775384068489075,1.0150477886199951) translate(-148.00314331054688,-152.71424865722656) translate(151.40391540527344,150.45030212402344) scale(1.0382962226867676,1.0592988729476929) translate(-151.40391540527344,-150.45030212402344) translate(148.3327178955078,154.8933563232422) scale(1.1032743453979492,1.1609405279159546) translate(-148.3327178955078,-154.8933563232422) " y2="84.1708" x2="160.082" y1="84.1708" x1="46.5329" gradientUnits="userSpaceOnUse" id="SVGID_1_">
     <stop stop-color="#FFC1A3" offset="0"/>
     <stop stop-color="#FFB1BB" offset="1"/>
    </linearGradient>
    <path id="svg_3" d="m175.68098,156.87878c-3.29252,6.35283 -7.77036,12.4169 -13.1701,17.90344c-12.11649,12.27252 -27.7889,19.49165 -44.11982,21.36862c-32.66184,3.75395 -63.47986,-14.14949 -58.60693,-58.0418c1.58041,-14.00511 6.58505,-27.28831 14.092,-38.83892c2.37062,-3.75395 5.26804,-7.50789 8.42886,-10.39555c1.05361,-1.01068 2.63402,-1.01068 3.68763,0c0.6585,0.57753 1.05361,1.44383 1.05361,2.31012c0,0.43315 -0.1317,0.8663 -0.2634,1.44383c-18.96494,42.3041 -5.92654,74.21265 15.14561,82.00931c21.33556,7.79666 60.58244,-12.4169 60.05564,-47.21311c0.2634,-10.53993 -7.77036,-19.9248 -18.30643,-21.51301c-9.08737,-1.29944 -20.15025,3.03203 -29.23761,17.47029c-7.11185,-10.97308 -5.00464,-26.99954 0.1317,-37.10632c2.89742,-5.7753 6.05824,-10.97308 7.77036,-15.88208c0,0 0,0 0,0c1.84381,-5.34216 1.84381,-10.25116 -2.10722,-14.87141c-6.58505,-7.65228 -30.81803,-10.68431 -55.44611,14.87141c-8.16546,8.37419 -14.61881,18.33659 -19.49174,29.30966c-10.27268,23.38998 -7.63866,37.68385 -7.37525,38.9833c-14.092,-51.4002 17.51623,-97.74701 58.73863,-106.55435l0.1317,0c6.32165,-1.29944 12.90669,-1.73259 19.49174,-1.15506c6.58505,0.57753 12.90669,2.59889 18.43814,6.35283c26.47189,17.75906 4.47783,48.65693 4.47783,48.65693c39.90539,-10.82869 56.23631,33.92991 36.48117,70.89185z" class="st0"/>
    <linearGradient transform="translate(1,0) translate(0,-11) translate(0,-4) translate(6,19) translate(3,16) translate(9,4) translate(-3,-2) translate(0,-1) translate(6,2) translate(2,32) translate(162.06893920898438,173.63607788085938) scale(1.123281478881836,1.1479419469833374) translate(-162.06893920898438,-173.63607788085938) translate(154.96466064453125,153.8719482421875) scale(1.0470362901687622,1.0075808763504028) translate(-154.96466064453125,-153.8719482421875) translate(148.00314331054688,152.71424865722656) scale(0.9775384068489075,1.0150477886199951) translate(-148.00314331054688,-152.71424865722656) translate(151.40391540527344,150.45030212402344) scale(1.0382962226867676,1.0592988729476929) translate(-151.40391540527344,-150.45030212402344) translate(148.3327178955078,154.8933563232422) scale(1.1032743453979492,1.1609405279159546) translate(-148.3327178955078,-154.8933563232422) " y2="64.4258" x2="117.3147" y1="64.4258" x1="46.532" gradientUnits="userSpaceOnUse" id="SVGID_2_">
     <stop stop-color="#EFC2EB" offset="0"/>
     <stop stop-color="#AFC1EE" offset="1"/>
    </linearGradient>
    <path id="svg_4" d="m122.21039,70.39361c1.84381,-5.34216 1.84381,-10.25116 -2.10722,-14.87141c-6.58505,-7.65228 -30.81803,-10.68431 -55.44611,14.87141c-8.03376,8.37419 -14.48711,18.33659 -19.36004,29.30966c-10.53608,23.96751 -7.50695,38.40577 -7.37525,39.12768c-14.092,-51.54458 17.38453,-97.89139 58.73863,-106.69873l0.1317,0l0.1317,0c27.9206,-4.33148 38.19328,12.85005 25.28659,38.26139z" class="st1"/>
    <linearGradient transform="translate(1,0) translate(0,-11) translate(0,-4) translate(6,19) translate(3,16) translate(9,4) translate(-3,-2) translate(0,-1) translate(6,2) translate(2,32) translate(162.06893920898438,173.63607788085938) scale(1.123281478881836,1.1479419469833374) translate(-162.06893920898438,-173.63607788085938) translate(154.96466064453125,153.8719482421875) scale(1.0470362901687622,1.0075808763504028) translate(-154.96466064453125,-153.8719482421875) translate(148.00314331054688,152.71424865722656) scale(0.9775384068489075,1.0150477886199951) translate(-148.00314331054688,-152.71424865722656) translate(151.40391540527344,150.45030212402344) scale(1.0382962226867676,1.0592988729476929) translate(-151.40391540527344,-150.45030212402344) translate(148.3327178955078,154.8933563232422) scale(1.1032743453979492,1.1609405279159546) translate(-148.3327178955078,-154.8933563232422) " y2="104.0571" x2="155.3375" y1="104.0571" x1="65.304" gradientUnits="userSpaceOnUse" id="SVGID_3_">
     <stop stop-color="#AFC1EE" offset="0"/>
     <stop stop-color="#EFC2EB" offset="1"/>
    </linearGradient>
    <path id="svg_5" d="m175.81269,156.87878c-0.1317,0 -0.1317,0 0,0c-3.42423,6.35283 -7.77036,12.4169 -13.3018,17.90344c-12.11649,12.27252 -27.7889,19.49165 -44.11982,21.36862c-32.66184,3.75395 -63.47986,-14.14949 -58.60693,-58.0418c1.58041,-14.00511 6.58505,-27.28831 14.092,-38.83892c2.37062,-3.75395 5.26804,-7.50789 8.42886,-10.39555c1.05361,-1.01068 2.63402,-1.01068 3.68763,0c0.6585,0.57753 1.05361,1.44383 1.05361,2.31012c0,0.43315 -0.1317,0.8663 -0.2634,1.44383c-18.96494,42.3041 -5.92654,74.21265 15.14561,82.00931c21.33556,7.79666 60.58244,-12.4169 60.05564,-47.21311c0.2634,-10.53993 -7.77036,-19.9248 -18.30643,-21.51301c19.09664,-1.15506 41.0907,23.96751 32.13504,50.96705z" class="st2"/>
    <g id="svg_6">
     <g id="svg_7">
      <linearGradient transform="translate(1,0) translate(0,-11) translate(0,-4) translate(6,19) translate(3,16) translate(9,4) translate(-3,-2) translate(0,-1) translate(6,2) translate(2,32) translate(162.06893920898438,173.63607788085938) scale(1.123281478881836,1.1479419469833374) translate(-162.06893920898438,-173.63607788085938) translate(154.96466064453125,153.8719482421875) scale(1.0470362901687622,1.0075808763504028) translate(-154.96466064453125,-153.8719482421875) translate(148.00314331054688,152.71424865722656) scale(0.9775384068489075,1.0150477886199951) translate(-148.00314331054688,-152.71424865722656) translate(151.40391540527344,150.45030212402344) scale(1.0382962226867676,1.0592988729476929) translate(-151.40391540527344,-150.45030212402344) translate(148.3327178955078,154.8933563232422) scale(1.1032743453979492,1.1609405279159546) translate(-148.3327178955078,-154.8933563232422) " y2="63.8671" x2="90.1882" y1="63.8671" x1="84.3123" gradientUnits="userSpaceOnUse" id="SVGID_4_">
       <stop stop-color="#EFC2EB" offset="0"/>
       <stop stop-color="#AFC1EE" offset="1"/>
      </linearGradient>
      <path id="svg_8" d="m92.05087,86.56446l0,0l0,0l-1.05361,1.01068c-0.5268,0.43315 -1.18531,0.57753 -1.71211,0.28877c-0.79021,-0.28877 -1.58041,-0.8663 -2.23892,-1.29944c0,0 0,0 0,0c-0.1317,-0.14438 -0.1317,-0.14438 -0.2634,-0.14438c0,0 0,0 0,0c-0.1317,0 -0.1317,-0.14438 -0.2634,-0.14438c-0.2634,-0.28877 -0.5268,-0.43315 -0.79021,-0.72191c0,0 0,0 0,0c-0.2634,-0.43315 -0.6585,-0.72191 -0.92191,-1.15506c0,0 -0.1317,-0.14438 -0.1317,-0.14438c-0.1317,-0.28877 -0.2634,-0.57753 -0.2634,-1.01068c0,-0.28877 0,-0.57753 0.1317,-0.8663l0.3951,-0.8663l0.1317,-0.28877l0,-0.14438l0,-0.14438l0,0l2.23892,1.87697c0,0 0,0 0,0l0.1317,0.14438l0.3951,0.28877c0,0 0,0 0,0l0.6585,0.57753l1.31701,1.01068l1.71211,1.44383l0.1317,0.14438l0.3951,0.14438z" class="st3"/>
     </g>
     <g id="svg_9" class="st4">
      <g id="svg_10">
       <path id="svg_11" d="m85.72923,81.36669l-0.5268,1.44383c-0.1317,0.28877 -0.2634,0.72191 -0.1317,1.15506c0,0.43315 0.1317,0.72191 0.3951,1.01068c0.1317,0.28877 0.3951,0.43315 0.5268,0.72191c-0.3951,-0.43315 -0.79021,-0.8663 -1.05361,-1.29944c-0.1317,-0.28877 -0.2634,-0.57753 -0.3951,-1.01068c0,-0.28877 0,-0.72191 0.1317,-1.01068l0.6585,-1.44383l0.3951,0.43315z" class="st5"/>
      </g>
     </g>
     <g id="svg_12">
      <g id="svg_13" class="st6">
       <path id="svg_14" d="m89.68025,84.5431l-1.31701,-1.01068l0,0l-0.5268,-0.57753l-0.3951,-0.28877l-0.1317,-0.14438c0,0 0,0 0,0l-2.23892,-1.87697l0,0.14438l0,0c0,0 0,0 0.1317,0.14438c0,0.14438 0.1317,0.14438 0.1317,0.14438c0,0 0,0 0,0l0,0l0.3951,0.43315l1.44871,1.29944l0.1317,0.14438l0.3951,0.28877l0.6585,0.57753l0.79021,0.72191l-0.1317,0l0.3951,0.43315l0.1317,0.14438l-0.3951,0.28877l-0.1317,0l-0.3951,0.57753c-0.3951,0.43315 -0.92191,0.57753 -1.44871,0.43315c0,0 0,0 0,0c0,0 -0.1317,0 -0.1317,0c0,0 0,0 0.1317,0c0.5268,0.28877 1.05361,0.57753 1.58041,0.8663c0.5268,0.28877 1.31701,0.14438 1.71211,-0.28877l0.79021,-0.72191l0,0l0.2634,-0.14438l-1.84381,-1.58821z" class="st7"/>
      </g>
     </g>
     <g id="svg_15">
      <path id="svg_16" d="m86.91453,76.74644l-0.92191,4.18709c-0.2634,-0.28877 -0.6585,-0.43315 -1.05361,-0.57753c0,0 0,0 -0.1317,0c0,0 -0.1317,0 -0.1317,0c-1.44871,-0.28877 -3.29252,0.43315 -4.34613,0.72191c-0.2634,0.14438 -0.3951,0.14438 -0.5268,0.14438c-0.1317,0 -0.1317,0 -0.1317,-0.14438c1.97551,-4.33148 4.21443,-5.19777 5.79484,-4.90901c0.6585,0.14438 1.05361,0.28877 1.44871,0.57753c-0.1317,-0.14438 0,0 0,0z" class="st8"/>
     </g>
     <g id="svg_17" class="st4">
      <g id="svg_18">
       <path id="svg_19" d="m86.78283,76.60206c-1.71211,-0.43315 -4.21443,0.28877 -6.45335,4.47586c-0.2634,0.14438 -0.3951,0.14438 -0.5268,0.14438c-0.1317,0 -0.1317,0 -0.1317,-0.14438c2.63402,-5.63092 5.79484,-5.34216 7.11185,-4.47586z" class="st5"/>
      </g>
     </g>
     <g id="svg_20">
      <path id="svg_21" d="m94.94829,83.38804c1.18531,1.15506 2.37062,4.47586 -1.97551,8.80734c0,0 -0.1317,0 -0.1317,-0.14438c0.1317,-0.8663 0.3951,-5.19777 -1.31701,-6.6416l3.42423,-2.02136z" class="st9"/>
     </g>
     <g id="svg_22">
      <path id="svg_23" d="m92.97278,92.19538c0,0 -0.1317,0 -0.1317,-0.14438c0,-0.43315 0.1317,-1.87697 0,-3.17642c-0.1317,-1.29944 -0.5268,-2.74327 -1.31701,-3.3208c0,0 0,0 0,0l0,0l3.42423,-2.02136c0.3951,0.28877 0.6585,0.8663 0.92191,1.44383c0.5268,1.58821 0.2634,4.04271 -2.89742,7.21913z" class="st8"/>
     </g>
     <g id="svg_24" class="st6">
      <path id="svg_25" d="m92.84108,88.87458c-0.1317,-1.29944 -0.5268,-2.74327 -1.31701,-3.3208c0,0 0,0 0,0l3.42423,-2.02136c0.3951,0.28877 0.6585,0.8663 0.92191,1.44383c-0.3951,1.15506 -1.31701,2.59889 -3.02912,3.89833z" class="st7"/>
     </g>
     <g id="svg_26">
      <path id="svg_27" d="m107.19648,68.08349c-0.6585,2.31012 -1.58041,5.05339 -3.29252,7.79666c-2.76572,4.76463 -5.92654,7.36351 -8.16546,8.95172c0,0 0,0 0,0c-1.58041,1.01068 -2.89742,1.58821 -3.42423,1.73259c0,0 0,0 0,0l0,0c-0.1317,0 -0.2634,0.14438 -0.2634,0.14438l0,0c0,0 0,0 0,0c-0.2634,-0.14438 -0.5268,-0.14438 -0.79021,-0.28877c-0.2634,-0.14438 -0.5268,-0.14438 -0.79021,-0.28877c0,0 0,0 -0.1317,0c0,0 0,0 0,0c-0.3951,-0.14438 -0.6585,-0.43315 -1.05361,-0.57753c0,0 -0.1317,-0.14438 -0.1317,-0.14438c-0.3951,-0.28877 -0.79021,-0.57753 -1.18531,-0.8663c-0.1317,-0.14438 -0.3951,-0.28877 -0.5268,-0.43315c-0.1317,-0.14438 -0.2634,-0.14438 -0.3951,-0.28877c-0.1317,0 -0.1317,-0.14438 -0.1317,-0.14438c-0.5268,-0.57753 -0.92191,-1.01068 -1.31701,-1.58821c-0.1317,-0.14438 -0.2634,-0.43315 -0.3951,-0.57753l0,0c0,0 0,0 0,0c0,0 0,0 -0.1317,-0.14438c0,0 0,0 -0.1317,-0.14438c0,0 0,0 0,0c0,0 0,0 0,0l0,-0.43315c0,-0.14438 0,-0.28877 0,-0.43315c0,-0.72191 0.1317,-1.87697 0.5268,-3.3208c0,-0.14438 0,-0.28877 0.1317,-0.43315c0.2634,-1.01068 0.5268,-2.16574 1.05361,-3.3208c0.1317,-0.14438 0.1317,-0.28877 0.2634,-0.43315c0.79021,-1.73259 1.84381,-3.75395 3.29252,-5.7753c0.3951,-0.43315 0.6585,-1.01068 1.05361,-1.44383c0,0 0,0 0,0c1.58041,-2.02136 3.16082,-3.46518 4.74123,-4.62024c0,0 0.1317,-0.14438 0.1317,-0.14438c0.1317,-0.14438 0.2634,-0.28877 0.3951,-0.28877c0.1317,-0.14438 0.3951,-0.28877 0.5268,-0.43315c0.1317,-0.14438 0.3951,-0.28877 0.5268,-0.43315c0.2634,-0.14438 0.3951,-0.28877 0.6585,-0.43315c0.3951,-0.14438 0.79021,-0.43315 1.05361,-0.57753c0.1317,-0.14438 0.3951,-0.14438 0.5268,-0.28877c0.2634,-0.14438 0.5268,-0.28877 0.79021,-0.28877c0.2634,-0.14438 0.5268,-0.14438 0.6585,-0.28877c2.10722,-0.72191 3.68763,-0.8663 4.74123,-0.8663c0.1317,0 0.2634,0 0.2634,0c0.1317,0 0.2634,0 0.3951,0c0.1317,0 0.2634,0 0.3951,0c0,0 0,0 0,0s0.1317,0.14438 0.1317,0.43315c0.6585,1.01068 1.44871,5.05339 0,10.68431z" class="st5"/>
     </g>
     <g id="svg_28">
      <path id="svg_29" d="m107.32818,68.08349c0,0 0,0 0,0c-0.1317,-0.14438 -0.2634,-0.43315 -0.3951,-0.57753c-0.3951,-0.57753 -0.92191,-1.15506 -1.44871,-1.58821c-2.23892,-2.31012 -4.74123,-4.33148 -7.63866,-5.91969c-0.2634,-0.14438 -0.3951,-0.28877 -0.6585,-0.43315c0.1317,-0.14438 0.3951,-0.28877 0.5268,-0.43315c0.2634,-0.14438 0.3951,-0.28877 0.6585,-0.43315c0.3951,-0.14438 0.79021,-0.43315 1.05361,-0.57753c0.1317,-0.14438 0.3951,-0.14438 0.5268,-0.28877c0.2634,-0.14438 0.5268,-0.28877 0.79021,-0.28877c0.2634,-0.14438 0.5268,-0.14438 0.6585,-0.28877c2.23892,-0.8663 4.08273,-1.01068 5.00464,-1.01068c0.3951,0 0.5268,0 0.79021,0c0.1317,0 0.1317,0 0.1317,0s0.1317,0.14438 0.1317,0.57753c0.3951,1.73259 1.31701,5.7753 -0.1317,11.26184z" class="st8"/>
     </g>
     <g id="svg_30">
      <g id="svg_31" class="st10">
       <g id="svg_32">
        <linearGradient transform="translate(1,0) translate(0,-11) translate(0,-4) translate(6,19) translate(3,16) translate(9,4) translate(-3,-2) translate(0,-1) translate(6,2) translate(2,32) translate(162.06893920898438,173.63607788085938) scale(1.123281478881836,1.1479419469833374) translate(-162.06893920898438,-173.63607788085938) translate(154.96466064453125,153.8719482421875) scale(1.0470362901687622,1.0075808763504028) translate(-154.96466064453125,-153.8719482421875) translate(148.00314331054688,152.71424865722656) scale(0.9775384068489075,1.0150477886199951) translate(-148.00314331054688,-152.71424865722656) translate(151.40391540527344,150.45030212402344) scale(1.0382962226867676,1.0592988729476929) translate(-151.40391540527344,-150.45030212402344) translate(148.3327178955078,154.8933563232422) scale(1.1032743453979492,1.1609405279159546) translate(-148.3327178955078,-154.8933563232422) " y2="54.8619" x2="102.1079" y1="54.8619" x1="84.7192" gradientUnits="userSpaceOnUse" id="SVGID_5_">
         <stop stop-color="#FFC1A3" offset="0"/>
         <stop stop-color="#FFB1BB" offset="1"/>
        </linearGradient>
        <path id="svg_33" d="m106.80138,67.50596c-0.6585,2.31012 -1.71211,4.90901 -3.29252,7.65228c-2.76572,4.62024 -5.66314,7.36351 -8.03376,8.95172c0,0 0,0 0,0c-1.44871,1.01068 -2.76572,1.58821 -3.42423,1.87697c0,0 0,0 0,0c-0.1317,0 -0.2634,0.14438 -0.3951,0.14438c-0.2634,0.14438 -0.3951,0.14438 -0.3951,0.14438c0,0 0,0 0,0c-0.2634,-0.14438 -0.5268,-0.14438 -0.79021,-0.28877c0,0 0,0 -0.1317,0c0,0 0,0 0,0c-0.3951,-0.14438 -0.79021,-0.28877 -1.05361,-0.57753c-0.1317,0 -0.1317,-0.14438 -0.2634,-0.14438c-0.3951,-0.28877 -0.79021,-0.43315 -1.18531,-0.72191c-0.1317,-0.14438 -0.3951,-0.28877 -0.5268,-0.43315c-0.1317,-0.14438 -0.2634,-0.14438 -0.3951,-0.28877c-0.1317,0 -0.1317,-0.14438 -0.1317,-0.14438c-0.1317,-0.14438 -0.2634,-0.14438 -0.3951,-0.28877c-0.3951,-0.43315 -0.79021,-0.8663 -1.05361,-1.29944c-0.1317,-0.14438 -0.2634,-0.43315 -0.3951,-0.72191c0,0 -0.1317,-0.14438 -0.1317,-0.14438l0.1317,-0.28877l0,-0.14438c0,0 0,0 0,0c0,0 0,0 0,0l0,-0.28877c0,0 0.1317,0.14438 0.1317,0.14438c0,0 0,0 0,0c0.6585,0.72191 1.44871,1.15506 2.37062,1.58821c0.1317,0 0.1317,0.14438 0.2634,0.14438c0.1317,0.14438 0.2634,0.14438 0.5268,0.14438c0.2634,0.14438 0.6585,0.14438 0.92191,0.28877c0.5268,0.14438 1.05361,0.14438 1.58041,0.14438c1.31701,0 2.63402,-0.57753 3.81933,-1.29944c2.10722,-1.58821 4.87294,-4.04271 7.37525,-8.08542c-1.58041,1.44383 -3.95103,1.58821 -5.66314,0.14438c-1.18531,-1.01068 -1.84381,-2.4545 -1.84381,-4.04271l0,0c0,-1.01068 0.3951,-2.16574 0.92191,-3.03203c0,0 0,0 0.1317,-0.14438c0,0 0,-0.14438 0.1317,-0.14438c0.2634,-0.28877 0.3951,-0.57753 0.6585,-0.72191c0.2634,-0.14438 0.5268,-0.43315 0.79021,-0.57753c0.1317,0 0.1317,0 0.1317,-0.14438c0.1317,0 0.1317,-0.14438 0.2634,-0.14438c0,0 0,0 0.1317,0c0,0 0.1317,0 0.1317,0c0,0 0,0 0.1317,0c0,0 0,0 0.1317,0c0,0 0.1317,0 0.1317,0c0.1317,0 0.3951,-0.14438 0.6585,-0.14438c0.1317,0 0.2634,0 0.3951,0c0.92191,0 1.84381,0.14438 2.76572,0.72191c0.1317,0.14438 0.2634,0.14438 0.2634,0.28877c1.44871,1.29944 2.10722,3.3208 1.71211,5.19777c0.79021,-1.58821 1.44871,-3.17642 1.97551,-4.62024c1.05361,-3.60956 1.18531,-6.6416 1.05361,-8.80734c0,-0.14438 0,-0.43315 0,-0.57753c0,0 0,0 0,0c0.3951,0 0.5268,0 0.79021,0c0,0 0,0 0,0.14438c0,0.14438 0.1317,0.28877 0.1317,0.43315c-0.1317,1.58821 0.2634,5.34216 -1.05361,10.10678z" class="st11"/>
       </g>
      </g>
      <g id="svg_34" class="st6">
       <path id="svg_35" d="m84.80732,79.77848c0,0 0,0 0,0c0,0 0,0 0,0c0,0 0,0 0,0z" class="st7"/>
      </g>
      <g id="svg_36" class="st6">
       <polygon id="svg_37" points="84.80731964111328,79.77848052978516 84.80731964111328,79.77848052978516 84.80731964111328,79.77848052978516 " class="st7"/>
      </g>
     </g>
     <g id="svg_38" class="st4">
      <g id="svg_39">
       <path id="svg_40" d="m107.59159,56.96603l-0.1317,0c-0.2634,0 -0.5268,0 -0.79021,0c-1.84381,0.14438 -5.13634,0.72191 -8.69226,2.88765c-0.2634,0.14438 -0.3951,0.28877 -0.6585,0.43315c-0.2634,-0.14438 -0.3951,-0.28877 -0.6585,-0.28877c0.1317,-0.14438 0.3951,-0.28877 0.5268,-0.43315c0.1317,-0.14438 0.3951,-0.28877 0.5268,-0.43315c0.2634,-0.14438 0.3951,-0.28877 0.6585,-0.43315c0.3951,-0.14438 0.79021,-0.43315 1.05361,-0.57753c0.1317,-0.14438 0.3951,-0.14438 0.5268,-0.28877c0.2634,-0.14438 0.5268,-0.28877 0.79021,-0.28877c0.2634,-0.14438 0.5268,-0.14438 0.6585,-0.28877c2.23892,-0.8663 4.08273,-1.01068 5.00464,-1.01068c0.3951,0 0.5268,0 0.79021,0c0.1317,0 0.1317,0 0.1317,0s0.1317,0.43315 0.2634,0.72191z" class="st5"/>
      </g>
     </g>
     <g id="svg_41">
      <ellipse id="svg_42" ry="3.1" rx="3.1" cy="99.92876" cx="67.69392" class="st8" transform="matrix(0.7966591349246939,-1.1497185265963634,1.0487347811878553,0.8733702583676257,-59.96324329975508,59.44905090748665) "/>
      <path id="svg_43" d="m102.85035,68.37225c0,-0.14438 0,-0.28877 -0.1317,-0.43315c0,-0.14438 0,-0.28877 -0.1317,-0.28877c-0.1317,-0.57753 -0.3951,-1.01068 -0.79021,-1.44383l0,0c0,0 0,0 0,0c-0.1317,-0.28877 -0.3951,-0.43315 -0.6585,-0.72191c-0.6585,-0.72191 -1.44871,-1.15506 -2.37062,-1.15506c-0.1317,0 -0.2634,0 -0.3951,0c-0.1317,0 -0.1317,0 -0.2634,0c-1.05361,0.14438 -2.10722,0.72191 -2.76572,1.73259c0,0 0,0.14438 -0.1317,0.14438c-0.6585,1.01068 -0.92191,2.16574 -0.79021,3.3208c0,0.43315 0.1317,0.8663 0.2634,1.15506c0,0 0,0 0,0s0,0 0,0c0.1317,0.14438 0.1317,0.28877 0.2634,0.43315c0.1317,0.14438 0.2634,0.43315 0.3951,0.57753c0.1317,0.14438 0.1317,0.28877 0.2634,0.43315c0.1317,0.14438 0.2634,0.28877 0.3951,0.43315c0,0 0,0 0,0c0.79021,0.57753 1.58041,0.8663 2.50232,0.8663c1.18531,0 2.50232,-0.57753 3.29252,-1.73259c0.5268,-0.8663 0.79021,-1.87697 0.79021,-2.74327c0.2634,-0.28877 0.2634,-0.43315 0.2634,-0.57753zm-6.45335,4.04271c-0.1317,0 -0.1317,0 0,0c-0.1317,-0.14438 -0.3951,-0.28877 -0.3951,-0.43315c0,0 0,0 0,0c-0.2634,-0.28877 -0.3951,-0.57753 -0.5268,-0.8663c0,-0.14438 -0.1317,-0.14438 -0.1317,-0.28877c0,0 0,0 0,0c0,0 0,-0.14438 -0.1317,-0.14438l0,0c-0.1317,-0.43315 -0.2634,-0.72191 -0.2634,-1.15506c-0.1317,-1.15506 0.1317,-2.31012 0.79021,-3.3208c0.6585,-0.8663 1.58041,-1.58821 2.63402,-1.73259c0.6585,-0.14438 1.31701,0 1.97551,0.28877c0.1317,0.14438 0.3951,0.14438 0.5268,0.28877c0,0 0.1317,0 0.1317,0c0,0 0.1317,0 0.1317,0.14438c0.1317,0 0.1317,0.14438 0.2634,0.14438c0,0 0,0 0,0c0.1317,0.14438 0.2634,0.28877 0.3951,0.43315c0,0 0,0 0,0c0.1317,0.14438 0.1317,0.14438 0.2634,0.28877c0,0 0,0 0,0c0,0 0.1317,0.14438 0.1317,0.14438c0,0.14438 0.1317,0.14438 0.1317,0.28877c0.2634,0.43315 0.3951,0.72191 0.5268,1.15506c0,0.14438 0.1317,0.28877 0.1317,0.57753c0.1317,1.15506 -0.1317,2.31012 -0.79021,3.3208c-1.58041,2.02136 -4.08273,2.31012 -5.79484,0.8663z" class="st7"/>
     </g>
     <g id="svg_44" class="st4">
      <g id="svg_45">
       <path id="svg_46" d="m101.92844,66.06213c-0.1317,0 -0.1317,-0.14438 -0.2634,-0.14438c-1.84381,-1.44383 -4.34613,-1.15506 -5.66314,0.8663c-1.18531,1.73259 -1.05361,4.18709 0.2634,5.63092c-1.58041,-1.58821 -1.84381,-4.18709 -0.5268,-6.06407c1.31701,-2.02136 3.95103,-2.31012 5.66314,-0.8663c0.1317,0.28877 0.3951,0.43315 0.5268,0.57753z" class="st5"/>
      </g>
     </g>
     <g id="svg_47" class="st6">
      <path id="svg_48" d="m101.92844,71.69305c-1.31701,2.02136 -3.95103,2.31012 -5.66314,0.8663c-0.5268,-0.43315 -0.92191,-1.01068 -1.31701,-1.73259c0.1317,0.28877 0.3951,0.43315 0.6585,0.72191c1.84381,1.44383 4.34613,1.15506 5.66314,-0.8663c0.92191,-1.29944 1.05361,-3.03203 0.5268,-4.47586c1.18531,1.44383 1.31701,3.75395 0.1317,5.48654z" class="st13"/>
      <path id="svg_49" d="m102.85035,68.37225c0,-0.14438 0,-0.28877 -0.1317,-0.43315c0,-0.14438 0,-0.28877 -0.1317,-0.28877c-0.1317,-0.57753 -0.3951,-1.01068 -0.79021,-1.44383l0,0c0,0 0,0 0,0c0,0 0,0 0,0l0,0l0,0c0,0 0,0 0,0c0,0 0,0 0,0c0.1317,0.28877 0.2634,0.57753 0.2634,1.01068c0.2634,1.15506 0,2.4545 -0.79021,3.46518c-0.6585,0.8663 -1.58041,1.58821 -2.63402,1.73259c-1.05361,0.14438 -2.10722,-0.14438 -2.89742,-0.8663c0,0 0,0 0,0c-0.1317,-0.14438 -0.1317,-0.14438 -0.2634,-0.28877c-0.1317,-0.14438 -0.2634,-0.28877 -0.3951,-0.43315c0,0 0,0 0,0l0,0c0,0 0,0 0,0c0,0 0,0 0,0c0,0 0,0 0,0c0,0 0,0 0,0s0,0 0,0c0.1317,0.14438 0.1317,0.28877 0.2634,0.43315c0.1317,0.14438 0.2634,0.43315 0.3951,0.57753c0.1317,0.14438 0.1317,0.28877 0.2634,0.43315c0.1317,0.14438 0.2634,0.28877 0.3951,0.43315c0,0 0,0 0,0c0.79021,0.57753 1.58041,0.8663 2.50232,0.8663c1.18531,0 2.50232,-0.57753 3.29252,-1.73259c0.5268,-0.8663 0.79021,-1.87697 0.79021,-2.74327c-0.1317,-0.43315 -0.1317,-0.57753 -0.1317,-0.72191zm-6.45335,4.04271c-0.1317,0 -0.1317,0 0,0c-0.1317,-0.14438 -0.3951,-0.28877 -0.3951,-0.43315c0,0 0,0 0,0c-0.2634,-0.28877 -0.3951,-0.57753 -0.5268,-0.8663c0.1317,0.14438 0.1317,0.14438 0.2634,0.28877l0,0c0,0 0,0 0,0c0.1317,0.14438 0.2634,0.28877 0.3951,0.28877c0.79021,0.57753 1.71211,0.72191 2.63402,0.57753c1.05361,-0.14438 2.10722,-0.8663 2.76572,-1.73259c0.6585,-0.8663 0.92191,-2.02136 0.79021,-3.03203c0,0 0,0 0,0c0,-0.28877 -0.1317,-0.72191 -0.1317,-1.01068c0.2634,0.43315 0.3951,0.72191 0.5268,1.15506c0,0.14438 0.1317,0.28877 0.1317,0.57753c0.1317,1.15506 -0.1317,2.31012 -0.79021,3.3208c-1.44871,2.02136 -3.95103,2.31012 -5.66314,0.8663z" class="st7"/>
     </g>
     <g id="svg_50">
      <g id="svg_51">
       <path id="svg_52" d="m103.11375,68.22787c-0.1317,-1.29944 -0.79021,-2.31012 -1.58041,-3.17642c0,0 -0.1317,0 -0.1317,-0.14438c-0.92191,-0.72191 -2.10722,-1.15506 -3.29252,-1.01068c-1.18531,0.14438 -2.23892,0.8663 -2.89742,1.87697c-0.6585,1.01068 -1.05361,2.16574 -0.92191,3.3208l0,0c0,0 0,0.14438 0,0.14438c0.1317,1.29944 0.79021,2.4545 1.71211,3.17642c0,0 0,0 0,0c1.97551,1.58821 4.60953,1.15506 6.18995,-1.01068c0.79021,-0.57753 1.05361,-1.87697 0.92191,-3.17642zm-7.24355,3.3208l0,0c0,0 -0.1317,-0.14438 -0.1317,-0.14438c-0.1317,-0.28877 -0.2634,-0.57753 -0.3951,-0.72191c0,0 0,0 0,0l0,0c0,0 0,0 0,0l0,0c-0.1317,-0.28877 -0.2634,-0.72191 -0.2634,-1.01068c-0.1317,-1.15506 0.1317,-2.16574 0.79021,-3.03203c0.6585,-0.8663 1.44871,-1.44383 2.50232,-1.58821c0.6585,-0.14438 1.31701,0 1.97551,0.28877c0.2634,0.14438 0.5268,0.28877 0.79021,0.43315c0,0 0,0 0,0c0.5268,0.43315 0.79021,0.8663 1.05361,1.44383c0,0.14438 0.1317,0.14438 0.1317,0.14438c0,0 0,0 0,0l0,0c0,0 0,0.14438 0.1317,0.14438c0,0 0,0 0,0c0.1317,0.28877 0.1317,0.57753 0.1317,0.8663c0.1317,1.15506 -0.1317,2.16574 -0.79021,3.03203c-1.18531,1.73259 -3.55593,2.16574 -5.13634,0.8663c0,0 0,0 0,0c-0.1317,-0.14438 -0.2634,-0.28877 -0.3951,-0.43315c-0.2634,-0.14438 -0.3951,-0.14438 -0.3951,-0.28877z" class="st14"/>
      </g>
     </g>
     <g id="svg_53">
      <g id="svg_54">
       <linearGradient transform="translate(1,0) translate(0,-11) translate(0,-4) translate(6,19) translate(3,16) translate(9,4) translate(-3,-2) translate(0,-1) translate(6,2) translate(2,32) translate(162.06893920898438,173.63607788085938) scale(1.123281478881836,1.1479419469833374) translate(-162.06893920898438,-173.63607788085938) translate(154.96466064453125,153.8719482421875) scale(1.0470362901687622,1.0075808763504028) translate(-154.96466064453125,-153.8719482421875) translate(148.00314331054688,152.71424865722656) scale(0.9775384068489075,1.0150477886199951) translate(-148.00314331054688,-152.71424865722656) translate(151.40391540527344,150.45030212402344) scale(1.0382962226867676,1.0592988729476929) translate(-151.40391540527344,-150.45030212402344) translate(148.3327178955078,154.8933563232422) scale(1.1032743453979492,1.1609405279159546) translate(-148.3327178955078,-154.8933563232422) " y2="53.1318" x2="97.2256" y1="53.1318" x1="93.2872" gradientUnits="userSpaceOnUse" id="SVGID_6_">
        <stop stop-color="#EFC2EB" offset="0"/>
        <stop stop-color="#AFC1EE" offset="1"/>
       </linearGradient>
       <circle id="svg_55" r="2.53477" cy="68.8054" cx="98.76762" class="st12"/>
      </g>
     </g>
     <g id="svg_56" class="st16">
      <g id="svg_57">
       <path id="svg_58" d="m100.74314,70.53799c-0.92191,1.29944 -2.50232,1.44383 -3.68763,0.57753c-0.2634,-0.14438 -0.3951,-0.43315 -0.6585,-0.72191c0,0 0,0 0.1317,0c1.18531,1.01068 2.76572,0.72191 3.68763,-0.57753c0.6585,-1.01068 0.6585,-2.31012 0.1317,-3.3208c1.05361,1.15506 1.31701,2.88765 0.3951,4.04271z" class="st5"/>
      </g>
     </g>
     <g id="svg_59" class="st6">
      <path id="svg_60" d="m101.00654,67.50596c0,0 0,-0.14438 0,0c-1.18531,-1.01068 -2.89742,-0.8663 -3.68763,0.43315c-0.6585,1.01068 -0.6585,2.16574 -0.1317,3.17642c-1.05361,-1.01068 -1.18531,-2.74327 -0.3951,-3.89833c0.92191,-1.29944 2.50232,-1.44383 3.68763,-0.57753c0.1317,0.28877 0.3951,0.57753 0.5268,0.8663z" class="st7"/>
     </g>
     <g id="svg_61">
      <g id="svg_62">
       <path id="svg_63" d="m100.47973,66.3509c-0.6585,-0.57753 -1.31701,-0.72191 -2.10722,-0.57753c-0.79021,0.14438 -1.44871,0.57753 -1.97551,1.15506c-0.92191,1.44383 -0.79021,3.46518 0.5268,4.47586c0,0 0,0 0,0c0.5268,0.43315 1.05361,0.57753 1.71211,0.57753c0.92191,0 1.71211,-0.43315 2.37062,-1.29944c0.92191,-1.29944 0.79021,-3.3208 -0.5268,-4.33148zm-3.02912,4.62024c0,-0.14438 -0.1317,-0.14438 0,0c-0.1317,-0.14438 -0.1317,-0.14438 0,0c-0.1317,-0.14438 -0.1317,-0.14438 0,0c-0.2634,-0.14438 -0.3951,-0.43315 -0.5268,-0.57753l0,0l0,0c-0.5268,-0.8663 -0.5268,-2.02136 0.1317,-2.88765c0.3951,-0.57753 0.92191,-0.8663 1.44871,-1.01068c0.5268,-0.14438 1.18531,0.14438 1.71211,0.43315c0,0 0,0 0,0c0,0 0.1317,0 0.1317,0.14438l0,0c0.2634,0.14438 0.3951,0.43315 0.5268,0.72191c0,0 0,0 0,0c0.3951,0.8663 0.3951,1.87697 -0.1317,2.74327c-0.92191,0.8663 -2.37062,1.15506 -3.29252,0.43315z" class="st14"/>
      </g>
     </g>
     <g id="svg_64" class="st17">
      <path id="svg_65" d="m103.24545,58.98739c-0.3951,-0.57753 -1.71211,-0.28877 -2.37062,0.14438c-0.6585,0.43315 -0.92191,0.8663 -0.79021,1.15506c0.2634,0.43315 0.79021,0.28877 1.44871,0c0.5268,-0.28877 2.10722,-0.57753 1.71211,-1.29944z" class="st5"/>
     </g>
     <g id="svg_66" class="st17">
      <path id="svg_67" d="m105.22097,58.69862c-0.2634,-0.43315 -1.18531,-0.57753 -1.44871,-0.43315c-0.3951,0.14438 -0.5268,0.43315 -0.2634,0.72191c0.2634,0.43315 0.6585,0.43315 0.92191,0.28877c0.2634,-0.14438 1.18531,0 0.79021,-0.57753z" class="st5"/>
     </g>
     <g id="svg_68">
      <path id="svg_69" d="m90.07536,84.25434c-1.18531,1.73259 -3.68763,2.4545 -3.68763,2.4545s0,0 0,0c0,-0.28877 0,-2.88765 1.18531,-4.47586c1.05361,-1.58821 3.02912,-2.02136 3.42423,-2.02136c0,0 0,0 0,0s0.2634,2.31012 -0.92191,4.04271z" class="st8"/>
     </g>
     <g id="svg_70" class="st4">
      <g id="svg_71">
       <path id="svg_72" d="m91.12897,80.21163c0,0 0,0.14438 0,0.43315c-0.6585,0.14438 -2.23892,0.57753 -3.16082,2.02136c-0.92191,1.29944 -1.05361,3.17642 -1.18531,4.04271c-0.2634,0.14438 -0.3951,0.14438 -0.3951,0.14438s0,0 0,0c0,-0.28877 0,-2.88765 1.18531,-4.47586c1.18531,-1.73259 3.16082,-2.16574 3.55593,-2.16574c0,0 0,0 0,0z" class="st5"/>
      </g>
     </g>
     <g id="svg_73" class="st6">
      <path id="svg_74" d="m90.07536,84.25434c-1.18531,1.73259 -3.68763,2.4545 -3.68763,2.4545s0,0 0,0l4.47783,-6.49722c0,0 0,0 0,0s0.3951,2.31012 -0.79021,4.04271z" class="st7"/>
     </g>
    </g>
   </g>
  </g>
 </g>
</svg>